<?xml version="1.0" standalone="no"?>
<!DOCTYPE svg PUBLIC "-//W3C//DTD SVG 20010904//EN"
 "http://www.w3.org/TR/2001/REC-SVG-20010904/DTD/svg10.dtd">
<svg version="1.0" xmlns="http://www.w3.org/2000/svg"
 width="128.000000pt" height="128.000000pt" viewBox="0 0 128.000000 128.000000"
 preserveAspectRatio="xMidYMid meet">

<g transform="translate(0.000000,128.000000) scale(0.100000,-0.100000)"
fill="#ffdb70" stroke="none">
<path d="M90 1083 c-90 -29 -90 -30 -90 -443 0 -292 3 -357 15 -384 30 -63 7
-61 603 -64 367 -2 555 1 583 8 28 8 46 21 59 43 19 30 20 53 20 397 0 344 -1
367 -20 397 -13 21 -31 35 -57 42 -38 11 -1082 15 -1113 4z m1127 -56 c17 -16
18 -46 18 -387 0 -341 -1 -371 -18 -387 -17 -17 -53 -18 -560 -18 -298 0 -554
3 -568 7 -15 4 -30 15 -33 24 -11 28 -8 732 3 751 15 27 92 31 643 29 463 -1
499 -2 515 -19z"/>
<path d="M653 956 l-28 -24 -3 -286 -3 -287 30 -29 29 -30 212 0 c233 0 263 6
277 58 10 36 10 530 0 564 -14 52 -45 58 -276 58 -207 0 -210 0 -238 -24z
m466 -30 c8 -9 11 -73 9 -209 l-3 -196 -48 46 -48 45 21 50 c19 45 20 55 10
100 -45 187 -313 167 -327 -24 -3 -39 1 -63 15 -89 l19 -37 -48 -41 -47 -41
-4 193 c-2 105 -2 194 -1 196 7 12 92 19 254 20 147 1 189 -2 198 -13z m-159
-92 c58 -35 78 -110 46 -172 -33 -64 -129 -83 -184 -37 -63 53 -66 133 -7 192
27 27 41 33 75 33 23 0 54 -7 70 -16z m113 -323 c58 -64 74 -145 31 -161 -28
-11 -278 -13 -373 -4 l-61 7 0 36 c1 50 30 110 74 149 37 32 38 32 114 26 43
-3 88 -2 102 4 32 12 65 -4 113 -57z"/>
<path d="M128 913 c-10 -2 -18 -11 -18 -19 0 -12 36 -14 220 -14 178 0 220 3
220 13 0 11 -32 15 -137 20 -147 8 -258 7 -285 0z"/>
<path d="M114 819 c-15 -25 21 -29 222 -27 190 3 209 5 212 21 3 16 -12 17
-212 17 -144 0 -217 -4 -222 -11z"/>
<path d="M143 743 c-20 -2 -33 -10 -33 -19 0 -12 35 -14 220 -14 189 0 220 2
220 15 0 12 -15 15 -77 15 -43 0 -127 2 -188 4 -60 2 -125 2 -142 -1z"/>
</g>
</svg>
