<?xml version="1.0" encoding="utf-8"?>
<!-- Generator: Adobe Illustrator 24.0.2, SVG Export Plug-In . SVG Version: 6.00 Build 0)  -->
<svg version="1.1" id="Layer_1" xmlns="http://www.w3.org/2000/svg" xmlns:xlink="http://www.w3.org/1999/xlink" x="0px" y="0px"
	 viewBox="0 0 280 135.7" style="enable-background:new 0 0 265 135.7;" xml:space="preserve">
<style type="text/css">
	.st0{fill:#ffdb70;}
	.st1{fill:#ffdb70;}
	.st2{fill:#ffdb70;}
</style>
<g>
	<path class="st0" d="M263.5,129.6l-9.6-13.7c1.4-9.1,6-45.9-5.1-61.8c-12.4-17.8-56.3-26.1-58.2-26.5c-0.3,0-0.5-0.1-0.7-0.1
		c-0.8,0-1.7,0.3-2.4,0.7c-0.9,0.6-1.5,1.6-1.7,2.7c-0.1,0.7-1.2,7.3-1.9,16.2c-0.2,3.1-0.4,6.4-0.5,9.9c-0.3,13.5,1,28.8,7.2,37.7
		c0.4,0.6,0.9,1.3,1.4,1.8c1.7,2,3.7,3.8,6.1,5.5c15.5,11.5,42.9,17.5,49.4,18.8l9.3,13.3c0.8,1.1,2.1,1.7,3.4,1.7
		c0.8,0,1.6-0.2,2.3-0.7C264.4,134,264.8,131.4,263.5,129.6z M203.7,96.1c-2.5-1.8-4.5-3.6-6-5.6c-0.1-0.1-0.2-0.3-0.3-0.4
		c-3.9-5.6-5.4-15.4-5.7-25.5c-0.1-3.7-0.1-7.5,0.1-11.1c0.3-6.4,0.9-12.4,1.5-16.9c14,3.1,41,11,48.9,22.2c6.8,9.7,6.3,32,4.8,47.1
		l-16.9-24.1c-0.8-1.1-2.1-1.7-3.4-1.7c-0.8,0-1.6,0.2-2.4,0.7c-1.9,1.3-2.3,3.9-1,5.7l17.2,24.5
		C229.1,108.1,213.3,102.9,203.7,96.1z"/>

	<path class="st1" d="M153.2,57c-13.5,0-24.4,11-24.4,24.4c0,13.5,11,24.4,24.4,24.4c13.5,0,24.4-11,24.4-24.4
		C177.7,68,166.7,57,153.2,57z M153.2,97.7c-9,0-16.2-7.3-16.2-16.2c0-9,7.3-16.2,16.2-16.2c9,0,16.2,7.3,16.2,16.2
		C169.5,90.4,162.2,97.7,153.2,97.7z"/>
	<path class="st1" d="M214.3,78.1c-0.7-0.9-9.7-13.3-22.5-24.6c-2.5-2.2-5.1-4.3-7.8-6.3c-9.3-6.9-19.9-12.2-30.5-12.4
		c-12.6,0-25.4,7.7-36.1,16.7c-2.2,1.8-4.3,3.7-6.3,5.6c-10.8,10.2-18.2,20.2-18.8,21c-1,1.4-1.1,3.3-0.1,4.7
		c0.4,0.6,3.8,5.4,9.1,11.7c2.1,2.5,4.5,5.2,7.1,7.9c11.6,12.1,28,25.4,44.2,25.6l0.4,0c16.3,0,33.2-13.6,45.1-25.9
		c2-2.1,3.9-4.1,5.6-6c6.2-7,10.2-12.6,10.6-13.3C215.3,81.4,215.3,79.5,214.3,78.1z M197.7,90.5c-1.7,1.9-3.6,4-5.6,6.1
		c-10.8,11.2-25.5,23.3-39,23.3h-0.3c-11.1-0.1-23-8.4-32.7-17.4c-2.9-2.7-5.6-5.5-8.1-8.2c-5.2-5.7-9.2-10.8-11.3-13.7
		c2.5-3.1,7.3-9,13.6-15.2c2.1-2.1,4.3-4.2,6.7-6.2c9.9-8.6,21.7-16.2,32.8-16.2c10,0.1,20.6,6.5,29.7,14.1c2.9,2.4,5.7,5,8.2,7.5
		c6.5,6.5,11.6,12.7,14.1,16C204.1,82.8,201.3,86.4,197.7,90.5z"/>
	<g>
		<path class="st2" d="M32.3,32.3c1.6-1.6,1.6-4.2,0-5.8L22.2,16.4c-0.8-0.8-1.8-1.2-2.9-1.2c-1.1,0-2.1,0.4-2.9,1.2
			c-1.6,1.6-1.6,4.2,0,5.8l10.1,10.1c0.8,0.8,1.8,1.2,2.9,1.2C30.4,33.5,31.5,33.1,32.3,32.3z"/>
		<path class="st2" d="M19.4,40.9l-14.2-4c-0.4-0.1-0.8-0.2-1.1-0.2c-1.8,0-3.4,1.2-3.9,3c-0.6,2.2,0.7,4.4,2.8,5.1l14.2,4l1.1,0.1
			c1.8,0,3.4-1.2,3.9-3C22.8,43.8,21.6,41.5,19.4,40.9z"/>
		<path class="st2" d="M40.9,19.4c0.5,1.8,2.2,3,3.9,3l1.1-0.1c2.2-0.6,3.5-2.9,2.8-5.1L44.8,3c-0.5-1.8-2.1-3-3.9-3
			c-0.4,0-0.7,0.1-1.1,0.2c-2.2,0.6-3.4,2.9-2.8,5L40.9,19.4z"/>
		<path class="st2" d="M123.8,80.3c-0.1-2.2-0.2-4-0.2-5c0-5.7-1-11.1-2.8-16.2c-1-2.7-2.2-5.3-3.6-7.8
			C109,36.8,93.2,26.9,75.2,26.9c-26.7,0-48.5,21.8-48.5,48.5c0,8,0.1,11.7,0.3,15.7c0.2,5,0.4,10.7,0.4,26.1c0,2.3,1.8,4.1,4.1,4.1
			c2.3,0,4.1-1.8,4.1-4.1c0-15.6-0.2-21.3-0.4-26.4c-0.1-4-0.2-7.6-0.2-15.5C34.9,53.1,52.9,35,75.2,35c15.6,0,29.2,8.9,35.9,22
			c1.4,2.6,2.4,5.4,3.2,8.4c0.8,3.2,1.3,6.5,1.3,10c0,1.1,0.1,3,0.1,5.3c0.1,3.2,0.4,9.7,0.2,13.6H112h-9.2c-0.5,0-1,0.1-1.5,0.3
			c-1.5,0.6-2.6,2.1-2.6,3.8v18.8c0,3.2-1.9,6.3-4.9,8.1c-1.7,1.1-3.6,1.6-5.5,1.6c-1.6,0-3.3-0.4-4.8-1.2c-0.6-0.3-1.3-0.5-1.9-0.5
			c-1.5,0-2.9,0.8-3.6,2.2c-1,2-0.3,4.5,1.7,5.5c2.7,1.4,5.7,2.1,8.6,2.1c3.4,0,6.8-0.9,9.8-2.8c5.5-3.3,8.9-9.1,8.9-15.1v-14.7h1.6
			h11.2c0.2,0,0.3,0,0.5,0c1.6-0.2,3.1-1.4,3.5-3C124.3,96.4,124.1,89.3,123.8,80.3z"/>
	</g>
</g>
</svg>
