<?xml version="1.0" standalone="no"?>
<!DOCTYPE svg PUBLIC "-//W3C//DTD SVG 20010904//EN"
 "http://www.w3.org/TR/2001/REC-SVG-20010904/DTD/svg10.dtd">
<svg version="1.0" xmlns="http://www.w3.org/2000/svg"
 width="1000.000000pt" height="1000.000000pt" viewBox="0 0 1000.000000 1000.000000"
 preserveAspectRatio="xMidYMid meet">

<g transform="translate(0.000000,1000.000000) scale(0.100000,-0.100000)"
fill="#ffdb70" stroke="none">
<path d="M3062 8297 l-252 -252 253 -253 252 -252 248 248 c136 136 247 252
247 257 0 6 -111 121 -248 258 l-247 247 -253 -253z"/>
<path d="M5747 8293 l-247 -248 251 -251 251 -251 250 250 249 251 -248 248
c-136 136 -250 248 -253 248 -3 0 -116 -111 -253 -247z"/>
<path d="M2385 7620 l-250 -250 253 -253 252 -252 252 252 253 253 -250 250
c-137 137 -252 250 -255 250 -3 0 -118 -113 -255 -250z"/>
<path d="M5075 7620 l-250 -250 252 -252 251 -251 252 253 251 254 -248 248
c-136 136 -250 248 -253 248 -3 0 -118 -113 -255 -250z"/>
<path d="M6422 7627 c-133 -133 -242 -247 -242 -252 0 -6 111 -121 248 -258
l247 -247 250 250 250 250 -250 250 c-137 138 -252 250 -255 250 -3 0 -114
-109 -248 -243z"/>
<path d="M9105 7620 l-250 -250 253 -253 252 -252 252 252 253 253 -250 250
c-137 137 -252 250 -255 250 -3 0 -118 -113 -255 -250z"/>
<path d="M1714 6949 l-249 -249 253 -253 252 -252 252 252 252 252 -219 221
c-121 122 -236 234 -256 250 l-35 29 -250 -250z"/>
<path d="M4405 6950 l-250 -250 251 -251 251 -251 247 245 c135 135 246 249
246 254 0 4 -111 119 -248 256 l-247 247 -250 -250z"/>
<path d="M5745 6950 l-250 -250 253 -253 252 -252 252 252 253 253 -250 250
c-137 137 -252 250 -255 250 -3 0 -118 -113 -255 -250z"/>
<path d="M8435 6950 l-250 -250 253 -253 252 -252 252 252 253 253 -250 250
c-137 137 -252 250 -255 250 -3 0 -118 -113 -255 -250z"/>
<path d="M1042 6277 l-252 -252 248 -248 c136 -136 252 -247 257 -247 6 0 121
111 258 248 l247 247 -253 253 -252 252 -253 -253z"/>
<path d="M5075 6280 l-250 -250 253 -253 252 -252 250 250 250 250 -253 253
-252 252 -250 -250z"/>
<path d="M7767 6282 c-136 -136 -247 -252 -247 -257 0 -6 111 -121 248 -258
l247 -247 253 253 252 252 -253 253 -252 252 -248 -248z"/>
<path d="M3727 6272 l-247 -247 250 -250 249 -249 73 69 c40 39 154 152 254
252 l181 181 -246 246 c-135 135 -251 246 -256 246 -6 0 -121 -111 -258 -248z"/>
<path d="M7097 5612 c-136 -136 -247 -252 -247 -257 0 -6 111 -121 248 -258
l247 -247 253 253 252 252 -253 253 -252 252 -248 -248z"/>
<path d="M367 5602 l-247 -247 253 -253 252 -252 249 249 250 250 -54 58 c-91
99 -439 443 -447 443 -5 0 -119 -111 -256 -248z"/>
<path d="M3057 5603 l-247 -248 251 -251 251 -251 250 250 249 251 -248 248
c-136 136 -250 248 -253 248 -3 0 -116 -111 -253 -247z"/>
<path d="M4402 5607 c-133 -133 -242 -247 -242 -252 0 -6 111 -121 248 -258
l247 -247 248 248 c136 136 247 252 247 257 0 13 -482 495 -495 495 -6 0 -119
-109 -253 -243z"/>
<path d="M2385 4930 l-250 -250 252 -252 251 -251 252 253 251 254 -248 248
c-136 136 -250 248 -253 248 -3 0 -118 -113 -255 -250z"/>
<path d="M3732 4937 c-133 -133 -242 -247 -242 -252 0 -6 111 -121 248 -258
l247 -247 250 250 250 250 -250 250 c-137 138 -252 250 -255 250 -3 0 -114
-109 -248 -243z"/>
<path d="M6417 4932 l-247 -247 253 -253 252 -252 248 248 c136 136 247 252
247 257 0 13 -482 495 -495 495 -6 0 -121 -111 -258 -248z"/>
<path d="M1715 4260 l-250 -250 251 -251 251 -251 247 245 c135 136 246 250
246 254 0 5 -111 119 -248 256 l-247 247 -250 -250z"/>
<path d="M3055 4260 l-250 -250 253 -253 252 -252 252 252 253 253 -250 250
c-137 137 -252 250 -255 250 -3 0 -118 -113 -255 -250z"/>
<path d="M5745 4260 l-250 -250 253 -253 252 -252 252 252 253 253 -250 250
c-137 137 -252 250 -255 250 -3 0 -118 -113 -255 -250z"/>
<path d="M2385 3590 l-250 -250 253 -253 252 -252 250 250 250 250 -253 253
-252 252 -250 -250z"/>
<path d="M5075 3590 l-250 -250 253 -253 252 -252 252 252 252 252 -249 251
c-138 137 -252 250 -255 250 -3 0 -118 -113 -255 -250z"/>
<path d="M4407 2922 c-136 -136 -247 -252 -247 -257 0 -6 111 -121 248 -258
l247 -247 253 253 252 252 -253 253 -252 252 -248 -248z"/>
<path d="M3727 2242 l-247 -247 253 -253 252 -252 248 248 c136 136 247 251
247 255 0 11 -487 497 -497 497 -5 0 -119 -111 -256 -248z"/>
</g>
</svg>
