<?xml version="1.0" standalone="no"?>
<!DOCTYPE svg PUBLIC "-//W3C//DTD SVG 20010904//EN"
 "http://www.w3.org/TR/2001/REC-SVG-20010904/DTD/svg10.dtd">
<svg version="1.0" xmlns="http://www.w3.org/2000/svg"
 width="265.000000pt" height="101.000000pt" viewBox="0 0 265.000000 101.000000"
 preserveAspectRatio="xMidYMid meet">

<g transform="translate(0.000000,101.000000) scale(0.100000,-0.100000)"
fill="#ffdb70" stroke="none">
<path d="M10 505 l0 -495 204 0 c217 0 304 11 409 50 74 28 170 100 218 164
69 91 102 244 80 371 -29 165 -104 270 -241 340 -100 50 -206 65 -457 65
l-213 0 0 -495z m502 260 c122 -48 173 -125 173 -260 -1 -71 -4 -87 -31 -135
-35 -62 -99 -112 -172 -134 -26 -7 -91 -14 -144 -15 l-98 -2 0 285 0 285 23 4
c49 11 193 -5 249 -28z"/>
<path d="M990 982 c0 -10 21 -34 46 -53 74 -55 101 -92 277 -384 62 -104 145
-239 182 -300 38 -60 85 -137 105 -170 l37 -60 142 -3 c178 -3 181 1 84 96
-51 50 -87 98 -132 178 -34 60 -88 150 -119 201 -74 119 -140 227 -237 386
l-78 127 -153 0 c-142 0 -154 -1 -154 -18z"/>
<path d="M1700 986 c0 -8 34 -47 76 -87 55 -54 95 -107 148 -194 40 -66 104
-169 141 -230 37 -60 116 -189 175 -285 l107 -175 146 -3 147 -3 -1 23 c0 15
-15 34 -42 53 -53 39 -104 106 -168 220 -27 50 -83 144 -125 210 -41 66 -86
140 -101 165 -15 25 -41 68 -58 95 -17 28 -56 89 -86 138 l-54 87 -152 0
c-124 0 -153 -3 -153 -14z"/>
<path d="M2420 677 l0 -323 33 -55 c17 -30 39 -67 47 -83 18 -34 114 -136 129
-136 8 0 11 136 11 460 l0 460 -110 0 -110 0 0 -323z"/>
<path d="M1700 660 l0 -282 41 -76 c52 -97 102 -165 144 -197 17 -14 35 -25
38 -25 4 0 7 131 7 291 l0 290 -26 47 c-53 97 -133 192 -186 223 -17 9 -18 -7
-18 -271z"/>
<path d="M992 473 l3 -458 113 -3 112 -3 0 326 0 325 -32 61 c-34 63 -164 209
-186 209 -10 0 -12 -95 -10 -457z"/>
</g>
</svg>
