<?xml version="1.0" standalone="no"?>
<!DOCTYPE svg PUBLIC "-//W3C//DTD SVG 20010904//EN"
 "http://www.w3.org/TR/2001/REC-SVG-20010904/DTD/svg10.dtd">
<svg version="1.0" xmlns="http://www.w3.org/2000/svg"
 width="729.000000pt" height="306.000000pt" viewBox="0 0 729.000000 306.000000"
 preserveAspectRatio="xMidYMid meet">

<g transform="translate(0.000000,306.000000) scale(0.100000,-0.100000)"
fill="#ffdb70" stroke="none">

<path d="M3354 2932 c-141 -50 -180 -122 -172 -319 6 -166 26 -194 228 -333
68 -46 131 -97 140 -113 42 -69 30 -206 -19 -222 -58 -18 -81 27 -81 160 l0
80 -130 0 -130 0 0 -101 c0 -137 17 -191 77 -243 115 -102 364 -110 494 -16
74 53 84 85 84 255 0 136 -2 149 -26 201 -30 64 -75 104 -230 204 -125 82
-139 100 -139 181 0 69 20 104 59 104 31 0 44 -27 49 -105 l5 -75 135 0 135 0
-6 83 c-9 125 -16 147 -61 191 -58 58 -118 78 -251 83 -89 3 -120 0 -161 -15z"/>
<path d="M500 2355 l0 -575 125 0 125 0 0 358 c0 196 4 363 9 371 9 14 13 -9
79 -469 l37 -255 88 -3 c65 -2 88 1 91 10 4 14 55 398 83 621 10 75 20 122 25
115 4 -7 8 -178 8 -380 l0 -368 125 0 125 0 0 575 0 575 -189 0 -189 0 -6 -27
c-3 -16 -17 -125 -31 -243 -14 -118 -28 -226 -32 -240 -5 -23 -6 -24 -14 -5
-4 11 -22 119 -39 240 -17 121 -33 232 -36 248 l-6 27 -189 0 -189 0 0 -575z"/>
<path d="M1560 2355 l0 -575 145 0 145 0 0 575 0 575 -145 0 -145 0 0 -575z"/>
<path d="M1980 2355 l0 -576 121 3 120 3 -1 247 c0 140 3 249 9 252 9 6 23
-36 96 -284 20 -69 43 -146 51 -172 l16 -48 124 0 c111 0 124 2 124 18 0 16 0
1108 0 1125 0 4 -53 6 -117 5 l-118 -3 -5 -255 c-3 -140 -8 -248 -12 -240 -4
8 -25 71 -47 140 -22 69 -57 178 -78 243 l-37 117 -123 0 -123 0 0 -575z"/>
<path d="M2770 2355 l0 -576 148 3 147 3 0 570 0 570 -147 3 -148 3 0 -576z"/>
<path d="M3962 2448 c3 -483 3 -483 26 -530 48 -98 147 -150 293 -156 168 -7
266 39 324 153 l30 59 3 478 3 479 -148 -3 -148 -3 -3 -480 c-2 -390 -5 -483
-17 -494 -19 -19 -61 -6 -69 21 -3 13 -6 233 -6 491 l0 467 -146 0 -145 0 3
-482z"/>
<path d="M4770 2356 l0 -576 145 0 145 0 2 233 3 232 100 6 c213 12 252 71
242 359 -6 169 -17 210 -69 255 -59 50 -99 57 -345 62 l-223 5 0 -576z m371
366 c20 -17 22 -27 23 -118 1 -129 -6 -151 -47 -162 -56 -15 -57 -13 -57 149
l0 149 29 0 c16 0 39 -8 52 -18z"/>
<path d="M5500 2355 l0 -575 258 2 257 3 3 107 3 107 -113 3 -113 3 0 130 0
130 93 3 92 3 0 104 0 105 -95 0 -96 0 3 113 3 112 103 3 103 3 -3 107 -3 107
-247 3 -248 2 0 -575z"/>
<path d="M6120 2356 l0 -576 145 0 145 0 0 260 0 260 28 0 c16 0 37 -6 48 -14
18 -13 19 -30 22 -260 l3 -246 134 0 135 0 0 233 c0 221 -1 234 -23 272 -16
29 -36 47 -74 65 -57 27 -67 40 -30 40 30 0 82 33 104 67 15 23 18 49 18 158
0 121 -2 134 -27 185 -29 57 -69 93 -129 111 -19 6 -139 13 -266 16 l-233 6 0
-577z m377 357 c13 -17 18 -159 7 -200 -6 -23 -65 -50 -84 -38 -6 4 -10 59
-10 137 l0 131 37 -6 c21 -4 44 -14 50 -24z"/>
<path d="M69 1640 c-1 -5 -1 -17 -1 -25 0 -8 0 -355 1 -770 l1 -755 3570 0
3570 0 0 780 0 780 -3570 0 c-2372 0 -3570 -3 -3571 -10z m857 -118 c7 -4 29
-128 50 -277 28 -197 40 -262 46 -240 4 17 21 138 37 269 20 153 35 243 43
248 7 4 108 7 223 5 l210 -2 0 -655 0 -655 -147 -3 -148 -3 0 402 c0 221 -2
400 -4 398 -3 -2 -21 -128 -41 -279 -20 -151 -44 -329 -53 -395 l-17 -120
-102 -1 c-65 -1 -106 3 -111 10 -5 6 -30 162 -56 346 -26 184 -50 349 -54 365
-4 17 -9 -139 -12 -345 l-5 -375 -145 0 -145 0 -3 645 c-1 355 0 651 3 658 3
9 55 12 212 12 114 0 213 -4 219 -8z m1082 0 c10 -7 12 -145 10 -658 l-3 -649
-170 0 -170 0 -3 649 c-2 513 0 651 10 658 7 4 81 8 163 8 83 0 156 -4 163 -8z
m476 2 c14 -5 16 -61 16 -520 l0 -514 100 0 101 0 -3 -137 -3 -138 -270 0
-270 0 -3 645 c-1 355 0 651 3 658 3 9 44 12 159 12 85 0 161 -3 170 -6z m854
-2 c9 -7 12 -41 10 -137 l-3 -128 -110 -1 -110 -1 -3 -117 -3 -117 108 -3 108
-3 2 -114 c1 -63 -1 -120 -4 -127 -4 -11 -31 -14 -109 -14 l-104 0 0 -135 0
-134 123 -3 122 -3 0 -135 0 -135 -292 -1 c-161 -1 -294 1 -294 5 -7 37 -3
1289 4 1299 7 9 74 12 276 12 146 0 272 -4 279 -8z m406 2 c11 -4 46 -98 104
-273 l87 -266 3 265 c2 196 6 266 15 272 16 10 248 10 265 0 10 -7 12 -145 10
-657 l-3 -649 -140 -3 c-77 -2 -145 0 -152 4 -6 5 -48 130 -92 278 l-80 270
-3 -275 -3 -275 -139 -3 c-105 -2 -141 1 -148 10 -4 7 -8 302 -8 655 0 504 3
642 13 646 18 8 252 8 271 1z m951 -654 l0 -655 -170 0 -170 0 -3 652 c-2 614
-1 652 15 656 10 3 88 4 173 3 l155 -1 0 -655z m475 119 c5 -566 6 -569 51
-569 10 0 23 9 29 19 6 13 10 203 10 549 0 474 2 531 16 536 24 9 307 7 322
-2 10 -7 12 -116 10 -548 -3 -528 -3 -540 -25 -586 -55 -120 -163 -187 -314
-196 -159 -9 -285 32 -363 119 -77 86 -77 84 -77 677 -1 287 2 526 6 532 4 7
62 10 168 8 l162 -3 5 -536z m1006 533 c6 -4 28 -130 49 -281 22 -150 41 -269
42 -264 2 5 19 128 37 272 23 183 38 266 47 272 17 11 409 12 427 1 10 -7 12
-145 10 -658 l-3 -649 -130 -3 c-71 -2 -139 -1 -152 3 l-23 5 -1 373 -1 372
-49 -365 c-27 -201 -51 -370 -53 -376 -3 -6 -45 -11 -109 -13 -94 -2 -106 0
-110 16 -3 10 -29 186 -59 391 l-53 373 -5 -388 -5 -388 -147 -2 -148 -1 0
652 c0 359 3 656 7 659 9 9 415 9 429 -1z"/>
</g>
</svg>
