<?xml version="1.0" standalone="no"?>
<!DOCTYPE svg PUBLIC "-//W3C//DTD SVG 20010904//EN"
 "http://www.w3.org/TR/2001/REC-SVG-20010904/DTD/svg10.dtd">
<svg version="1.0" xmlns="http://www.w3.org/2000/svg"
 width="392.000000pt" height="183.000000pt" viewBox="0 0 392.000000 183.000000"
 preserveAspectRatio="xMidYMid meet">

<g transform="translate(0.000000,183.000000) scale(0.100000,-0.100000)"
fill="#ffdb70" stroke="none">
<path d="M1913 1793 c9 -2 23 -2 30 0 6 3 -1 5 -18 5 -16 0 -22 -2 -12 -5z"/>
<path d="M1993 1793 c9 -2 23 -2 30 0 6 3 -1 5 -18 5 -16 0 -22 -2 -12 -5z"/>
<path d="M1856 1765 c-27 -7 -71 -27 -98 -44 -59 -37 -68 -39 -42 -9 11 13 2
9 -23 -11 -24 -18 -43 -35 -43 -38 0 -4 8 1 18 10 29 26 38 20 12 -8 -12 -13
-26 -22 -30 -20 -4 3 -14 -3 -21 -13 -13 -15 -12 -16 4 -3 24 19 21 10 -13
-46 -81 -131 -74 -322 15 -439 15 -19 28 -42 29 -51 2 -9 11 -17 20 -19 20 -3
59 -35 51 -42 -3 -3 -15 3 -27 14 -20 17 -21 17 -9 1 17 -21 58 -46 47 -28
-10 16 -6 14 60 -16 51 -24 72 -28 154 -28 111 0 173 19 247 75 304 229 156
714 -222 727 -47 1 -100 -3 -129 -12z m91 -21 c-3 -3 -12 -4 -19 -1 -8 3 -5 6
6 6 11 1 17 -2 13 -5z m56 -17 c4 3 7 2 7 -3 0 -6 -15 -10 -34 -11 -32 -1 -33
0 -17 17 13 14 18 15 27 4 6 -8 14 -11 17 -7z m45 -5 c13 -20 13 -22 -2 -16
-9 3 -16 12 -16 19 0 7 -5 16 -10 18 -6 3 -5 4 1 3 7 -1 19 -12 27 -24z m-142
0 c1 -7 0 -8 -3 -2 -8 16 -26 12 -19 -5 3 -8 2 -14 -2 -13 -4 1 -17 -3 -28
-10 -12 -6 -24 -8 -28 -4 -4 3 -11 0 -16 -8 -8 -12 -10 -10 -10 8 0 20 3 21
20 12 14 -8 20 -8 20 0 0 6 4 9 9 5 6 -3 15 4 21 15 12 22 32 23 36 2z m172
-13 c-3 -8 -7 -3 -11 10 -4 17 -3 21 5 13 5 -5 8 -16 6 -23z m-218 13 c0 -5
-7 -9 -15 -9 -8 0 -15 4 -15 9 0 4 7 8 15 8 8 0 15 -4 15 -8z m255 -21 c-1 -8
-7 -16 -14 -17 -7 -2 -7 0 -1 3 7 3 8 9 1 17 -8 9 -7 13 3 13 8 0 13 -7 11
-16z m-359 -46 c-12 -39 -18 -42 -36 -20 -10 12 -8 16 11 24 13 5 20 10 14 11
-7 0 12 18 21 20 1 0 -4 -16 -10 -35z m346 -11 c61 -31 107 -77 138 -140 33
-65 34 -186 3 -254 -84 -182 -325 -233 -476 -100 -158 138 -124 398 64 495 77
40 191 39 271 -1z m108 6 c0 -5 -7 -10 -16 -10 -8 0 -12 5 -9 10 3 6 10 10 16
10 5 0 9 -4 9 -10z m31 -25 c0 -6 7 -14 15 -18 8 -4 14 -13 14 -19 0 -6 8 -17
18 -24 14 -10 15 -15 4 -26 -11 -11 -12 -10 -6 6 6 15 4 18 -7 14 -10 -4 -15
1 -16 15 -2 21 -22 39 -35 31 -16 -10 -29 7 -17 22 13 16 31 15 30 -1z m-536
-15 c3 -6 -1 -7 -9 -4 -9 3 -16 2 -16 -4 0 -6 6 -13 13 -15 9 -4 9 -6 0 -6
-15 -1 -26 16 -18 29 8 13 22 13 30 0z m-52 -104 c9 5 9 4 1 -5 -6 -6 -19 -9
-28 -5 -14 5 -15 9 -4 15 7 5 14 4 16 -1 2 -6 9 -7 15 -4z m657 -1 c-10 -12
-10 -15 4 -15 19 0 22 -25 4 -36 -8 -5 -6 -10 7 -14 19 -7 19 -7 -1 -18 -16
-8 -20 -7 -21 6 -4 35 -11 71 -18 81 -3 7 3 11 16 11 18 0 19 -2 9 -15z m-673
-41 c-3 -3 -12 -4 -19 -1 -8 3 -5 6 6 6 11 1 17 -2 13 -5z m-2 -23 c3 -5 2
-12 -3 -15 -5 -3 -9 1 -9 9 0 17 3 19 12 6z m699 -46 c-7 -17 -34 -21 -34 -4
0 5 4 8 9 4 5 -3 12 -1 16 5 9 15 15 12 9 -5z m-713 -5 c9 13 10 13 6 0 -2 -8
-10 -15 -17 -15 -7 0 -15 7 -17 15 -4 13 -3 13 6 0 10 -13 12 -13 22 0z m115
-276 c-6 -7 -15 -10 -20 -7 -4 3 -3 9 4 13 8 5 7 9 -5 14 -9 3 -13 11 -10 17
5 7 13 4 24 -8 12 -13 14 -21 7 -29z m511 31 c0 -8 -4 -12 -9 -9 -4 3 -8 9 -8
15 0 5 4 9 8 9 5 0 9 -7 9 -15z m-33 -37 c-3 -5 -10 -6 -15 -3 -9 6 -13 -9 -9
-30 1 -5 -4 -5 -11 2 -9 9 -9 16 -1 26 12 15 45 19 36 5z m-440 -14 c5 -13 4
-14 -7 -6 -8 7 -18 8 -22 4 -5 -4 -5 -1 -1 6 10 17 23 15 30 -4z m46 -36 c0
-5 4 -6 10 -3 5 3 7 0 4 -8 -7 -21 -43 -9 -41 13 1 18 27 16 27 -2z m335 13
c3 -5 1 -12 -5 -16 -5 -3 -10 1 -10 9 0 18 6 21 15 7z m-55 -15 c0 -2 -8 -10
-17 -17 -16 -13 -17 -12 -4 4 13 16 21 21 21 13z m-236 -22 c3 -8 2 -12 -4 -9
-6 3 -10 10 -10 16 0 14 7 11 14 -7z m211 -23 c-6 -5 -25 10 -25 20 0 5 6 4
14 -3 8 -7 12 -15 11 -17z m-155 9 c0 -5 -5 -10 -11 -10 -5 0 -7 5 -4 10 3 6
8 10 11 10 2 0 4 -4 4 -10z m50 -3 c11 3 20 1 20 -3 0 -5 -11 -10 -25 -10 -17
-1 -25 3 -24 15 0 9 3 11 5 5 3 -7 14 -10 24 -7z"/>
<path d="M1725 1640 c3 -5 8 -10 11 -10 2 0 4 5 4 10 0 6 -5 10 -11 10 -5 0
-7 -4 -4 -10z"/>
<path d="M1867 1646 c-110 -40 -187 -151 -187 -270 0 -81 26 -144 84 -202 158
-157 423 -85 481 131 17 61 17 69 2 131 -26 105 -102 188 -196 214 -50 14
-139 12 -184 -4z m77 -108 c13 -18 16 -53 16 -170 l0 -148 -85 0 -85 0 0 154
c0 182 2 186 85 186 44 0 57 -4 69 -22z m180 0 c13 -18 16 -53 16 -170 l0
-148 -85 0 -85 0 0 160 c0 182 -1 179 87 180 42 0 55 -4 67 -22z"/>
<path d="M1860 1500 c0 -5 5 -10 10 -10 6 0 10 5 10 10 0 6 -4 10 -10 10 -5 0
-10 -4 -10 -10z"/>
<path d="M1860 1439 c0 -5 5 -7 10 -4 6 3 10 8 10 11 0 2 -4 4 -10 4 -5 0 -10
-5 -10 -11z"/>
<path d="M1821 1374 c0 -11 3 -14 6 -6 3 7 2 16 -1 19 -3 4 -6 -2 -5 -13z"/>
<path d="M1855 1380 c3 -5 8 -10 11 -10 2 0 4 5 4 10 0 6 -5 10 -11 10 -5 0
-7 -4 -4 -10z"/>
<path d="M1820 1315 c15 -18 34 -19 48 -2 9 10 3 13 -25 15 -32 3 -35 1 -23
-13z"/>
<path d="M1910 1309 c0 -5 5 -7 10 -4 6 3 10 8 10 11 0 2 -4 4 -10 4 -5 0 -10
-5 -10 -11z"/>
<path d="M1876 1249 c3 -5 12 -9 21 -9 19 0 9 13 -12 16 -8 1 -13 -2 -9 -7z"/>
<path d="M2055 1510 c3 -5 8 -10 11 -10 2 0 4 5 4 10 0 6 -5 10 -11 10 -5 0
-7 -4 -4 -10z"/>
<path d="M2080 1510 c0 -5 5 -10 10 -10 6 0 10 5 10 10 0 6 -4 10 -10 10 -5 0
-10 -4 -10 -10z"/>
<path d="M2000 1450 c0 -5 5 -10 11 -10 5 0 7 5 4 10 -3 6 -8 10 -11 10 -2 0
-4 -4 -4 -10z"/>
<path d="M2030 1439 c0 -5 5 -7 10 -4 6 3 10 8 10 11 0 2 -4 4 -10 4 -5 0 -10
-5 -10 -11z"/>
<path d="M2103 1375 c0 -8 4 -12 9 -9 5 3 6 10 3 15 -9 13 -12 11 -12 -6z"/>
<path d="M1999 1307 c7 -7 14 -8 21 -1 6 6 2 10 -12 11 -16 2 -18 -1 -9 -10z"/>
<path d="M2045 1310 c4 -6 11 -8 16 -5 14 9 11 15 -7 15 -8 0 -12 -5 -9 -10z"/>
<path d="M2051 1244 c0 -11 3 -14 6 -6 3 7 2 16 -1 19 -3 4 -6 -2 -5 -13z"/>
<path d="M2220 1620 c-9 -6 -10 -10 -3 -10 6 0 15 5 18 10 8 12 4 12 -15 0z"/>
<path d="M2300 1470 c0 -5 5 -10 10 -10 6 0 10 5 10 10 0 6 -4 10 -10 10 -5 0
-10 -4 -10 -10z"/>
<path d="M2110 1770 c8 -5 20 -10 25 -10 6 0 3 5 -5 10 -8 5 -19 10 -25 10 -5
0 -3 -5 5 -10z"/>
<path d="M2265 1670 c22 -25 48 -56 58 -70 17 -24 17 -24 0 8 -10 18 -35 49
-57 70 l-40 37 39 -45z"/>
<path d="M1551 1464 c0 -11 3 -14 6 -6 3 7 2 16 -1 19 -3 4 -6 -2 -5 -13z"/>
<path d="M2382 1440 c0 -14 2 -19 5 -12 2 6 2 18 0 25 -3 6 -5 1 -5 -13z"/>
<path d="M1542 1415 c0 -16 2 -22 5 -12 2 9 2 23 0 30 -3 6 -5 -1 -5 -18z"/>
<path d="M1542 1335 c0 -16 2 -22 5 -12 2 9 2 23 0 30 -3 6 -5 -1 -5 -18z"/>
<path d="M2382 1310 c0 -14 2 -19 5 -12 2 6 2 18 0 25 -3 6 -5 1 -5 -13z"/>
<path d="M1551 1284 c0 -11 3 -14 6 -6 3 7 2 16 -1 19 -3 4 -6 -2 -5 -13z"/>
<path d="M793 967 c-526 -198 -770 -294 -767 -302 4 -9 99 23 317 105 978 367
1205 452 1216 460 8 4 12 12 10 17 -2 5 -351 -121 -776 -280z"/>
<path d="M2360 1229 c-7 -11 -9 -23 -6 -27 3 -3 6 0 6 6 0 7 5 12 10 12 8 0
776 -286 900 -335 19 -8 167 -63 328 -124 209 -78 292 -105 290 -94 -2 10
-251 108 -758 299 -415 156 -756 284 -757 284 -1 0 -7 -9 -13 -21z"/>
<path d="M2298 1121 c-21 -27 -54 -62 -75 -77 -54 -40 -63 -50 -25 -28 37 21
112 97 131 132 19 35 8 26 -31 -27z"/>
<path d="M1620 1126 c0 -2 8 -10 18 -17 15 -13 16 -12 3 4 -13 16 -21 21 -21
13z"/>
<path d="M1787 989 c7 -7 15 -10 18 -7 3 3 -2 9 -12 12 -14 6 -15 5 -6 -5z"/>
<path d="M2135 990 c-3 -6 1 -7 9 -4 18 7 21 14 7 14 -6 0 -13 -4 -16 -10z"/>
<path d="M1858 963 c7 -3 16 -2 19 1 4 3 -2 6 -13 5 -11 0 -14 -3 -6 -6z"/>
<path d="M2028 953 c7 -3 16 -2 19 1 4 3 -2 6 -13 5 -11 0 -14 -3 -6 -6z"/>
<path d="M1583 808 c-13 -15 -18 -36 -18 -79 0 -32 -4 -59 -8 -59 -15 0 19
-39 76 -85 31 -26 57 -55 57 -65 0 -24 -36 -53 -59 -47 -12 3 -18 0 -15 -7 2
-6 -11 -52 -31 -101 -19 -50 -35 -93 -35 -97 0 -5 14 -8 30 -8 l30 0 0 -109
c0 -90 3 -110 16 -115 9 -3 20 -4 25 0 5 3 9 55 9 115 0 71 4 108 10 104 6 -4
10 -54 10 -117 0 -96 2 -109 16 -104 9 3 18 6 20 6 2 0 4 50 4 110 l0 110 30
0 c34 0 34 -1 19 37 -65 164 -69 190 -39 218 25 22 53 108 45 135 -4 12 -18
23 -33 26 -25 5 -27 9 -24 47 2 29 -4 52 -17 74 -17 27 -26 32 -60 31 -27 0
-46 -7 -58 -20z m37 -119 c0 -5 -7 -9 -15 -9 -8 0 -15 7 -15 15 0 9 6 12 15 9
8 -4 15 -10 15 -15z m64 6 c3 -8 1 -15 -4 -15 -6 0 -10 7 -10 15 0 8 2 15 4
15 2 0 6 -7 10 -15z"/>
<path d="M2503 795 c-30 -21 -31 -77 -2 -106 19 -19 19 -22 5 -38 -9 -10 -16
-22 -16 -27 0 -5 -10 -14 -22 -19 -18 -8 -23 -18 -23 -45 0 -27 -7 -41 -31
-63 -22 -18 -35 -40 -39 -67 -8 -46 9 -105 32 -114 13 -5 14 -16 8 -64 -4 -31
-11 -65 -17 -75 -8 -16 -7 -17 11 -8 11 6 31 11 45 11 24 0 25 -2 28 -72 3
-65 5 -73 23 -73 18 0 20 8 23 73 l3 74 39 -7 c43 -7 46 -5 28 28 -7 12 -13
58 -14 102 -1 44 -6 103 -11 132 -10 55 -8 66 18 75 33 13 53 214 26 268 -16
31 -80 39 -114 15z"/>
<path d="M2763 776 c-13 -14 -18 -28 -13 -31 6 -4 10 -14 10 -24 0 -20 40 -61
59 -61 9 0 11 -8 7 -24 -3 -13 1 -41 10 -61 9 -21 13 -49 9 -63 -9 -36 -65
-102 -101 -117 -29 -12 -32 -17 -72 -181 -22 -93 -39 -170 -37 -173 15 -14 35
16 45 66 49 243 53 258 82 261 22 3 30 -2 40 -22 6 -14 16 -26 21 -26 9 0 7
19 -8 65 -4 14 3 30 24 53 16 17 34 32 39 32 5 0 17 -26 27 -59 l17 -58 -36
-53 c-33 -48 -36 -58 -36 -125 0 -93 -5 -105 -41 -105 -20 0 -29 -5 -29 -16 0
-12 10 -14 48 -12 l47 3 5 90 c4 70 11 99 30 133 35 62 70 54 70 -16 0 -15 11
-60 25 -100 14 -41 22 -78 19 -83 -3 -5 -16 -9 -30 -9 -15 0 -24 -6 -24 -15 0
-20 78 -21 86 -1 3 7 -4 53 -15 102 -11 49 -22 116 -25 149 -5 54 -33 135
-110 316 -8 20 -22 39 -31 43 -14 5 -13 9 6 35 18 25 20 35 12 68 -8 37 -10
38 -59 41 -43 2 -53 -1 -71 -22z"/>
<path d="M972 668 c-20 -20 -15 -76 9 -88 19 -11 19 -13 5 -29 -13 -14 -16
-41 -16 -127 0 -60 4 -114 8 -121 5 -8 48 -13 132 -15 l125 -3 23 -43 c13 -23
30 -42 38 -42 20 0 19 3 -32 80 l-46 69 -82 3 -81 3 -3 32 -3 32 73 3 c57 2
73 6 73 18 0 12 -15 16 -66 18 l-66 3 -6 42 c-3 23 -12 46 -20 51 -13 8 -11
13 9 29 27 21 31 58 8 81 -18 19 -65 21 -82 4z"/>
<path d="M1497 644 c-25 -25 8 -70 43 -59 32 10 24 59 -10 63 -14 2 -29 0 -33
-4z"/>
<path d="M1525 550 c10 -11 20 -20 23 -20 3 0 -3 9 -13 20 -10 11 -20 20 -23
20 -3 0 3 -9 13 -20z"/>
<path d="M1407 482 c-21 -23 -22 -76 -2 -96 17 -17 20 -36 5 -36 -13 0 -92
-120 -87 -134 2 -6 16 8 30 32 15 23 30 42 33 42 7 0 -1 -125 -12 -207 -6 -38
-4 -43 14 -43 21 0 32 38 32 112 0 61 17 52 29 -15 6 -35 11 -71 11 -80 0 -11
8 -17 21 -17 20 0 21 3 15 53 -16 124 -19 197 -7 197 6 0 11 -4 11 -8 0 -16
59 -77 60 -61 0 16 -38 67 -82 110 -32 31 -33 35 -13 56 16 16 17 76 1 101
-11 18 -40 15 -59 -6z"/>
<path d="M2140 449 c-13 -23 -6 -84 10 -94 6 -4 10 11 10 34 0 23 5 41 10 41
6 0 10 -5 10 -12 0 -6 10 -22 22 -36 20 -20 21 -25 7 -32 -17 -10 -94 -129
-87 -136 3 -2 20 17 39 44 l34 47 3 -33 c2 -23 -4 -46 -22 -72 l-25 -39 22 -3
c20 -3 22 -8 19 -60 -2 -37 0 -58 7 -58 6 0 13 10 15 23 17 84 19 85 28 30 6
-35 14 -53 24 -53 10 0 13 7 9 22 -2 13 -6 39 -7 58 -3 32 0 35 25 38 33 4 33
7 2 44 -26 31 -31 53 -16 76 6 10 13 1 26 -30 10 -24 19 -38 22 -32 5 14 -44
126 -60 136 -8 5 -6 12 6 26 9 10 17 29 17 41 0 41 25 16 30 -30 4 -38 6 -41
12 -19 11 36 10 88 -2 95 -5 3 -17 2 -26 -3 -11 -6 -27 -5 -46 2 -21 8 -33 7
-48 -2 -15 -9 -26 -10 -40 -2 -15 8 -21 6 -30 -11z"/>
<path d="M886 406 c-135 -136 -44 -370 144 -370 103 0 189 76 206 182 7 46
-12 62 -21 17 -3 -14 -7 -36 -10 -50 -7 -31 -59 -91 -96 -111 -33 -17 -121
-19 -152 -3 -47 24 -88 74 -103 126 -22 74 -1 145 56 197 22 20 40 38 40 41 0
16 -34 0 -64 -29z"/>
</g>
</svg>
