<?xml version="1.0" standalone="no"?>
<!DOCTYPE svg PUBLIC "-//W3C//DTD SVG 20010904//EN"
 "http://www.w3.org/TR/2001/REC-SVG-20010904/DTD/svg10.dtd">
<svg version="1.0" xmlns="http://www.w3.org/2000/svg"
 width="1920.000000pt" height="1284.000000pt" viewBox="0 0 1920.000000 1284.000000"
 preserveAspectRatio="xMidYMid meet">

<g transform="translate(0.000000,1284.000000) scale(0.100000,-0.100000)"
fill="#ffdb70" stroke="none">
<path d="M6775 12549 c-817 -33 -1414 -145 -1973 -370 -380 -153 -957 -476
-1332 -747 -1485 -1073 -2560 -2805 -2945 -4745 -105 -532 -148 -977 -148
-1527 1 -734 93 -1348 298 -1979 512 -1572 1613 -2639 2959 -2866 625 -105
1316 -22 1921 232 469 197 848 455 1226 832 434 435 741 919 953 1505 275 757
320 1639 125 2419 -127 504 -347 957 -649 1337 -499 626 -1229 1046 -2060
1184 -395 65 -884 64 -1288 -5 -491 -82 -1025 -291 -1507 -588 -81 -50 -149
-91 -150 -91 -9 0 104 422 170 635 209 674 546 1383 924 1949 389 581 884
1109 1406 1499 747 559 1579 896 2460 997 93 11 178 20 188 20 16 0 17 12 15
158 l-3 157 -195 1 c-107 1 -285 -3 -395 -7z m-2475 -5540 c339 -37 649 -149
900 -327 122 -86 315 -278 414 -412 354 -477 647 -1271 760 -2061 43 -303 51
-426 51 -784 0 -268 -4 -370 -18 -480 -69 -534 -215 -941 -465 -1295 -84 -118
-299 -337 -412 -417 -298 -211 -614 -316 -1000 -330 -1139 -42 -2018 796
-2393 2283 -95 376 -152 733 -189 1189 -20 249 -17 1141 5 1415 18 217 48 456
67 520 5 19 10 46 10 60 0 23 16 35 133 99 430 236 818 401 1133 480 281 71
677 95 1004 60z"/>
<path d="M14275 9289 c-1024 -43 -1832 -201 -2500 -488 -145 -63 -441 -215
-585 -301 -1314 -786 -2048 -1942 -2110 -3323 -48 -1075 310 -2184 1004 -3105
261 -346 626 -721 939 -965 762 -595 1624 -858 2727 -834 300 7 494 24 756 67
840 140 1565 485 2177 1037 510 461 925 1119 1110 1758 200 690 176 1318 -73
1945 -369 927 -1240 1826 -2500 2580 l-175 105 1928 3 1927 2 0 765 0 765
-2217 -2 c-1220 0 -2303 -5 -2408 -9z m48 -1636 c600 -621 1022 -1141 1271
-1566 86 -146 208 -405 261 -552 137 -380 193 -739 202 -1300 7 -444 -11 -704
-73 -1045 -165 -904 -584 -1587 -1182 -1928 -654 -373 -1513 -307 -2227 171
-895 598 -1499 1726 -1632 3049 -21 209 -24 709 -5 863 72 590 249 1056 549
1444 80 103 259 289 364 377 385 322 925 535 1479 584 177 15 208 16 562 18
l317 2 114 -117z"/>
</g>
</svg>
