<?xml version="1.0" standalone="no"?>
<!DOCTYPE svg PUBLIC "-//W3C//DTD SVG 20010904//EN"
 "http://www.w3.org/TR/2001/REC-SVG-20010904/DTD/svg10.dtd">
<svg version="1.0" xmlns="http://www.w3.org/2000/svg"
 width="983.000000pt" height="984.000000pt" viewBox="0 0 983.000000 984.000000"
 preserveAspectRatio="xMidYMid meet">

<g transform="translate(0.000000,984.000000) scale(0.100000,-0.100000)"
fill="#ffdb70" stroke="none">

<path d="M4380 9745 c-565 -39 -1354 -156 -1481 -221 -106 -53 -137 -142 -104
-301 l7 -31 -68 -8 c-38 -4 -161 -4 -274 -1 -272 8 -478 35 -714 93 -55 13
-101 23 -103 21 -2 -2 142 -101 319 -220 398 -267 385 -256 368 -287 -10 -20
-279 -361 -349 -444 -16 -18 -11 -19 204 -13 544 16 1045 144 1194 306 13 14
32 45 43 68 21 47 18 46 158 68 335 52 786 94 1110 104 230 8 769 -2 809 -13
9 -3 72 -10 141 -16 172 -15 443 -48 515 -64 33 -8 108 -22 168 -31 l107 -18
11 -41 c25 -94 87 -166 186 -215 115 -57 276 -85 713 -121 135 -11 311 -27
392 -36 81 -9 155 -14 163 -12 11 2 -17 45 -97 148 -202 258 -248 319 -248
328 0 9 144 105 507 338 110 71 200 130 199 132 -2 1 -63 -11 -137 -27 -400
-90 -772 -112 -1007 -61 -51 12 -54 13 -48 39 14 58 18 158 7 197 -17 64 -63
118 -123 148 -125 61 -827 161 -1383 196 -216 14 -957 10 -1185 -5z"/>
<path d="M4520 8583 c-261 -15 -344 -31 -408 -80 -58 -44 -72 -89 -72 -239 l0
-132 -42 -6 c-24 -3 -122 -12 -218 -21 -640 -55 -1378 -58 -2005 -9 -208 16
-640 67 -744 88 -122 25 -346 78 -406 97 -32 10 -61 16 -63 14 -2 -2 9 -23 25
-47 17 -24 58 -86 93 -138 35 -52 123 -184 196 -294 74 -109 134 -201 134
-205 0 -6 -76 -50 -365 -208 -174 -96 -200 -113 -175 -113 8 0 47 -5 85 -11
119 -17 400 -48 619 -69 115 -11 218 -22 230 -25 36 -8 460 -34 726 -45 657
-25 1204 -2 1624 69 295 51 466 99 624 178 197 98 291 215 300 371 l4 79 181
6 c99 4 218 7 264 7 l83 0 0 -33 c0 -59 21 -150 50 -213 118 -261 539 -423
1260 -484 205 -18 819 -24 1130 -11 413 17 1146 62 1235 76 17 3 149 14 294
25 146 11 267 22 269 25 4 4 -125 90 -355 235 -73 46 -133 88 -133 93 0 5 23
47 50 94 28 47 50 87 50 89 0 2 56 95 124 206 68 112 131 218 140 237 l18 33
-44 -7 c-24 -4 -56 -11 -73 -16 -73 -23 -665 -95 -980 -121 -216 -17 -951 -17
-1160 0 -223 18 -401 38 -600 67 -171 25 -203 31 -437 81 l-126 28 -7 55 c-14
124 -52 191 -127 229 -94 48 -146 52 -698 50 -283 -1 -540 -3 -570 -5z"/>
<path d="M4164 7162 c-112 -29 -181 -68 -260 -146 -77 -77 -123 -155 -144
-245 -16 -69 -8 -217 17 -296 l19 -59 26 44 c37 63 138 171 185 197 l39 22 55
-38 c69 -49 125 -67 274 -89 l120 -17 -2 -115 c-5 -242 -62 -368 -303 -670
-90 -113 -134 -205 -150 -318 -8 -53 -17 -82 -25 -82 -7 0 -25 25 -40 56 -57
117 -129 166 -274 190 -154 25 -203 57 -300 192 -79 111 -136 169 -238 241
-137 96 -307 166 -513 212 -139 30 -430 38 -571 15 -220 -37 -404 -119 -537
-242 -97 -89 -151 -165 -187 -260 -43 -114 -144 -289 -223 -386 -81 -99 -121
-139 -245 -245 -74 -63 -77 -68 -55 -76 30 -11 250 -13 306 -3 l43 8 -3 -274
c-3 -267 -4 -274 -27 -323 -31 -63 -87 -118 -184 -184 -42 -28 -77 -54 -77
-56 0 -5 104 0 249 10 l64 4 -7 -187 c-16 -427 -60 -701 -136 -829 -24 -42
-15 -42 74 1 84 41 208 151 266 236 128 188 212 515 223 865 l2 80 -34 3 -34
3 34 35 34 35 32 -38 33 -38 25 29 c15 15 28 26 30 24 7 -7 -13 -268 -31 -398
-19 -145 -59 -326 -90 -409 -13 -35 -24 -69 -24 -77 0 -12 171 -185 190 -192
4 -2 40 37 79 86 l71 90 0 451 0 451 33 0 c18 0 38 -5 44 -11 8 -8 13 -8 17 0
4 6 14 11 22 11 12 0 14 -65 14 -451 l0 -450 67 -65 c38 -35 71 -63 74 -62 3
2 31 31 62 64 l57 62 0 129 c0 71 3 280 7 463 5 264 9 329 18 316 11 -15 14
-14 29 9 11 17 25 25 46 25 l30 0 0 -476 0 -476 40 -50 40 -51 0 535 c0 464 2
537 15 548 13 11 15 77 15 486 0 261 2 474 4 474 4 0 203 -41 361 -75 66 -14
203 -43 305 -65 102 -21 198 -43 213 -49 18 -7 141 -11 343 -11 l315 0 57 29
c31 17 91 53 132 80 l75 51 477 0 c553 0 507 7 681 -108 60 -39 123 -74 140
-77 18 -4 187 -5 377 -3 337 4 347 4 440 30 53 15 215 52 360 83 146 30 295
62 332 70 37 8 72 15 77 15 8 0 11 -147 11 -469 0 -404 2 -472 15 -485 13 -13
15 -88 15 -556 0 -312 4 -540 9 -538 5 2 25 22 44 45 l35 42 7 481 8 480 60 0
60 0 -6 -472 -7 -473 64 -69 64 -70 66 64 66 64 0 452 c0 353 3 453 13 456 6
2 38 2 70 0 l57 -4 0 -452 0 -451 71 -88 71 -88 96 88 c53 48 99 88 100 89 2
1 -14 56 -36 122 -66 194 -97 377 -108 630 l-7 152 24 0 c16 0 32 12 49 37 24
35 25 36 31 12 4 -13 8 -55 8 -94 3 -207 44 -491 92 -648 86 -279 213 -445
419 -548 76 -37 86 -37 62 4 -26 42 -67 171 -86 272 -23 124 -34 244 -41 445
-3 102 -8 220 -11 263 l-5 79 148 -7 c170 -7 168 -13 29 83 -81 56 -139 124
-156 183 -6 21 -11 153 -13 295 -2 226 0 259 13 255 34 -9 239 -12 294 -4 l60
8 -80 67 c-212 176 -379 401 -467 627 -38 98 -88 171 -175 252 -146 138 -280
204 -523 256 -104 22 -404 25 -519 4 -401 -71 -685 -234 -848 -486 -65 -101
-153 -158 -261 -170 -125 -14 -203 -55 -268 -138 l-22 -29 -5 24 c-12 60 -12
79 0 89 20 16 17 47 -4 53 -16 5 -22 33 -41 184 -59 459 -156 798 -292 1019
-68 110 -202 247 -290 296 -123 68 -184 82 -364 82 -132 0 -174 -4 -241 -22
l-81 -22 -62 25 c-85 35 -209 41 -307 16z m270 -72 c121 -38 211 -152 239
-302 8 -47 21 -75 48 -110 52 -67 91 -150 87 -187 -3 -30 -4 -29 -73 51 -140
163 -215 222 -315 252 -164 49 -386 -15 -532 -152 l-67 -63 -7 35 c-16 88 22
224 87 306 39 49 126 120 182 148 91 45 243 55 351 22z m637 -13 c73 -25 183
-91 242 -146 166 -153 297 -451 373 -849 l26 -137 -32 -53 c-18 -28 -36 -52
-39 -52 -3 0 -16 24 -29 53 -12 29 -47 80 -76 114 l-53 61 -6 -74 c-7 -80 -25
-164 -36 -164 -3 0 -20 24 -38 53 -52 86 -155 181 -220 201 -23 7 -23 7 -23
-103 0 -67 -4 -111 -10 -111 -16 0 -131 91 -191 151 l-55 57 -29 -52 c-30 -52
-127 -188 -132 -183 -1 2 -5 21 -8 43 -11 68 -24 107 -54 159 -26 42 -31 47
-37 30 -29 -85 -120 -225 -146 -225 -4 0 -14 15 -22 34 -8 18 -23 40 -35 48
-20 14 -20 15 19 89 62 118 91 232 97 383 l6 128 51 -7 c62 -8 87 -29 141
-124 22 -39 43 -71 48 -71 4 0 21 21 37 47 57 90 35 216 -57 326 -32 38 -42
60 -46 99 -8 62 -56 167 -103 225 -41 50 -43 48 68 69 112 21 275 13 369 -19z
m-627 -361 c48 -21 162 -113 153 -122 -8 -8 -258 27 -326 46 -88 25 -157 58
-145 70 5 5 34 16 64 25 75 21 182 13 254 -19z m-1917 -521 c198 -28 355 -78
498 -158 161 -91 224 -146 326 -288 101 -142 168 -186 325 -213 104 -18 176
-56 213 -111 55 -80 67 -75 -174 -75 -208 0 -221 1 -383 35 -92 20 -221 47
-287 61 -66 14 -207 46 -313 70 -106 24 -199 44 -207 44 -12 0 -15 -17 -15
-85 0 -47 -4 -85 -8 -85 -4 0 -25 34 -47 76 -22 42 -44 78 -49 81 -5 3 -25
-14 -45 -38 -20 -24 -56 -65 -81 -91 l-45 -48 -94 67 -94 67 -41 -49 c-23 -27
-57 -67 -76 -88 l-35 -38 -67 91 c-37 50 -69 92 -72 93 -3 1 -27 -24 -54 -56
-27 -32 -89 -94 -138 -138 -146 -132 -357 -219 -528 -219 l-70 0 86 88 c48 48
108 112 133 142 73 88 187 288 231 405 66 180 275 352 511 420 183 54 401 68
600 40z m5221 -21 c314 -55 559 -227 657 -464 85 -205 190 -363 348 -524 53
-55 97 -102 97 -104 0 -10 -168 11 -239 29 -168 43 -291 120 -443 278 l-108
111 -38 -53 c-21 -28 -51 -71 -68 -94 -16 -24 -31 -43 -35 -43 -3 0 -28 31
-57 68 -28 37 -62 78 -74 89 l-23 22 -85 -70 c-47 -38 -87 -69 -90 -69 -6 0
-142 147 -153 166 -16 27 -33 13 -61 -46 -16 -34 -33 -63 -37 -66 -5 -3 -9 26
-9 64 l0 69 -57 -12 c-32 -7 -76 -17 -98 -23 -38 -10 -168 -38 -545 -118 -91
-19 -195 -41 -232 -49 -48 -11 -130 -15 -287 -15 -250 0 -245 -2 -195 75 46
72 131 115 257 130 54 7 167 62 211 103 15 15 50 59 76 97 103 149 195 227
375 318 269 136 608 184 913 131z m-2415 -303 c24 -36 57 -91 72 -121 15 -30
32 -58 37 -61 12 -8 -5 -75 -27 -106 -22 -31 -40 -29 -55 7 -16 40 -76 99
-127 128 l-41 22 -6 -44 c-7 -43 -41 -106 -61 -113 -5 -1 -23 20 -40 48 -34
58 -109 129 -135 129 -22 0 -118 -103 -126 -136 -3 -13 -8 -24 -11 -24 -2 0
-28 26 -57 57 l-54 58 68 66 c37 36 85 92 106 125 21 32 39 61 41 63 1 2 30
-23 63 -55 66 -63 127 -105 197 -135 l43 -18 0 115 0 115 35 -26 c19 -15 54
-57 78 -94z m-663 -73 l0 -117 -42 -52 c-24 -29 -53 -58 -64 -66 -20 -13 -23
-11 -47 29 -44 75 -48 77 -185 80 l-122 3 80 99 c44 54 80 102 80 107 0 5 6 9
13 9 21 0 39 -41 44 -102 3 -32 8 -58 10 -58 2 0 30 18 62 39 60 41 106 88
137 140 27 45 34 23 34 -111z m894 47 c14 -31 30 -82 37 -115 6 -33 15 -60 19
-60 4 0 12 12 19 28 19 42 74 132 82 132 7 0 15 -43 24 -140 l7 -65 -41 45
-40 45 -1 -57 c0 -70 -16 -107 -47 -115 -60 -14 -97 35 -118 156 -11 62 -11
81 0 110 7 20 16 48 19 64 4 15 8 27 10 27 3 0 16 -25 30 -55z m-535 -244 c16
-25 33 -58 36 -73 l7 -28 -111 0 c-91 0 -111 3 -111 15 0 27 47 120 75 148
l28 27 24 -22 c13 -12 36 -42 52 -67z m244 7 c20 -23 47 -79 47 -98 0 -6 -37
-10 -97 -10 l-98 0 37 30 c20 17 46 46 58 65 12 19 24 35 27 35 3 0 15 -10 26
-22z m-834 -17 c25 -25 52 -77 44 -84 -3 -3 -18 -3 -34 0 -51 10 -96 -7 -191
-69 -51 -33 -108 -67 -127 -75 l-34 -15 6 66 c3 36 16 91 29 123 l23 58 90 6
c172 10 174 10 194 -10z m315 -30 c20 -27 36 -52 36 -55 0 -4 -43 -6 -95 -5
-52 1 -95 2 -95 3 0 9 98 104 107 105 6 1 27 -21 47 -48z m815 -82 c52 -16
102 2 132 45 21 31 25 33 44 20 17 -11 24 -32 34 -92 7 -42 15 -90 18 -106 l6
-28 -70 4 c-66 3 -75 7 -184 75 -63 40 -121 75 -130 78 -13 5 -9 13 20 43 l36
37 28 -32 c15 -18 45 -38 66 -44z m-3149 -74 c72 -117 70 -103 70 -405 l0
-275 -40 -60 c-21 -33 -50 -72 -62 -88 l-23 -27 -47 60 -48 59 0 321 0 321 58
65 c31 35 60 64 64 64 3 0 16 -16 28 -35z m5130 -425 l0 -315 -46 -58 c-25
-31 -50 -55 -55 -51 -5 3 -32 39 -59 79 l-50 74 0 278 0 278 41 85 41 85 64
-70 64 -69 0 -316z m-5407 377 l67 -49 0 -316 0 -317 -79 -68 c-44 -37 -86
-69 -93 -72 -8 -3 -36 24 -69 67 l-56 73 5 285 c4 270 6 287 26 316 47 68 112
141 121 136 6 -3 40 -28 78 -55z m-364 22 c79 -107 81 -111 81 -205 0 -49 -3
-181 -7 -293 l-6 -204 -74 -89 c-41 -49 -78 -88 -83 -86 -5 2 -31 32 -59 67
l-51 64 0 301 0 301 83 87 c45 47 85 87 88 87 3 1 15 -13 28 -30z m6053 -66
l65 -88 6 -275 6 -274 -26 -36 c-14 -19 -42 -54 -61 -78 l-34 -43 -81 73 c-45
40 -85 78 -89 83 -4 6 -8 144 -8 307 l0 296 73 61 c39 33 75 61 78 61 3 0 35
-39 71 -87z m408 -387 l0 -296 -51 -65 c-28 -36 -55 -65 -59 -65 -9 0 -123
129 -144 164 -10 15 -16 95 -21 299 l-6 277 53 80 52 81 88 -90 88 -90 0 -295z
m-6720 -41 c0 -281 -2 -308 -20 -359 -53 -140 -167 -218 -354 -240 l-49 -6 41
44 c22 24 53 68 69 98 l28 53 3 295 3 296 62 22 c34 12 94 40 132 61 39 22 73
40 78 40 4 1 7 -136 7 -304z m6851 254 c45 -26 129 -63 191 -82 15 -5 17 -34
20 -284 l3 -278 31 -66 c18 -37 49 -86 70 -109 l39 -43 -45 7 c-195 31 -282
83 -342 204 l-33 67 -3 307 c-2 203 0 308 7 308 6 0 34 -14 62 -31z"/>
<path d="M4826 7003 c-36 -189 0 -305 115 -368 103 -56 212 -16 254 93 15 38
24 50 35 46 53 -22 63 13 10 37 -19 9 -90 28 -157 42 -184 40 -232 71 -218
143 5 29 3 34 -14 34 -13 0 -21 -9 -25 -27z m65 -132 c25 -15 32 -27 34 -55 4
-67 44 -106 135 -130 l55 -14 -30 -12 c-71 -28 -176 15 -210 87 -18 37 -34
143 -21 143 3 0 20 -9 37 -19z m139 -56 c0 -24 -12 -45 -26 -45 -15 0 -30 43
-20 58 8 14 46 3 46 -13z"/>
<path d="M2670 4305 l0 -1025 -42 0 c-60 -1 -153 -25 -210 -54 -26 -14 -48
-21 -48 -15 0 12 34 45 75 75 l29 20 -21 35 c-12 19 -32 44 -45 56 l-23 22
-52 -64 -53 -63 -2 -820 -3 -821 23 22 c60 56 119 185 145 318 9 41 21 169 28
284 10 185 14 237 18 268 1 4 12 5 26 1 21 -5 25 -3 25 16 0 18 5 21 33 18 26
-2 32 -7 31 -25 0 -19 5 -23 33 -23 18 0 33 -3 33 -7 0 -5 5 -53 10 -107 33
-334 168 -512 450 -592 62 -18 148 -19 1762 -22 1881 -3 1771 -6 1916 63 182
86 284 270 299 538 l6 107 44 0 c37 0 45 4 53 24 5 14 20 31 34 38 22 11 10
13 -87 10 -140 -4 -181 4 -185 39 -5 42 20 53 133 57 80 3 109 1 133 -12 30
-15 54 -45 51 -63 -4 -24 2 -63 10 -63 5 0 17 7 26 16 9 9 17 15 19 13 5 -6
25 -258 32 -399 12 -264 60 -421 171 -557 17 -22 18 4 15 798 -3 911 4 825
-71 916 l-35 43 -28 -33 c-16 -17 -35 -44 -43 -58 -13 -25 -12 -28 21 -59 18
-19 34 -43 34 -54 0 -20 0 -20 -15 1 -8 12 -30 31 -48 42 -36 22 -156 51 -213
51 l-34 0 0 523 c0 287 -3 748 -7 1025 l-6 502 -201 0 c-233 0 -230 1 -354
-105 -51 -44 -83 -64 -110 -68 -20 -3 -225 -6 -455 -7 -478 -1 -428 -9 -570
102 -49 38 -104 76 -122 84 -50 21 -760 21 -810 0 -19 -8 -80 -49 -137 -91
-56 -43 -113 -81 -125 -86 -13 -5 -222 -8 -465 -8 l-441 1 -46 51 c-25 27 -67
72 -92 99 l-46 48 -237 0 -236 0 0 -1025z m289 929 c11 -15 47 -56 79 -93 70
-78 296 -348 367 -436 28 -35 88 -107 135 -161 47 -55 113 -133 145 -174 33
-41 87 -106 120 -145 33 -38 78 -92 100 -120 22 -27 83 -100 135 -162 205
-240 210 -246 197 -261 -9 -11 -25 1 -86 65 -42 43 -98 103 -125 133 -28 30
-84 91 -125 135 -42 44 -101 109 -131 144 -30 35 -59 69 -65 75 -5 6 -64 70
-129 141 -66 72 -158 171 -205 220 -47 50 -97 104 -110 120 -13 17 -63 71
-110 120 -48 50 -102 108 -121 131 -19 22 -86 94 -147 159 -62 65 -113 122
-113 127 0 4 38 8 84 8 79 0 86 -2 105 -26z m258 -116 c65 -79 123 -150 130
-158 6 -8 49 -60 95 -115 46 -55 99 -121 119 -147 19 -26 61 -78 92 -115 31
-37 90 -109 129 -159 105 -130 212 -262 381 -466 81 -99 147 -183 147 -187 0
-4 -9 -16 -21 -27 -20 -18 -21 -18 -37 3 -57 71 -200 242 -213 253 -3 3 -36
43 -74 90 -39 47 -110 133 -160 192 -49 59 -124 148 -165 199 -157 191 -278
335 -567 678 -40 47 -73 89 -73 94 0 4 22 7 49 7 l49 0 119 -142z m1430 134
c11 -7 39 -121 78 -317 8 -38 30 -144 49 -235 19 -91 49 -232 66 -314 17 -81
29 -150 27 -152 -2 -2 -22 49 -45 113 -50 146 -216 619 -271 772 -23 62 -41
117 -41 122 0 16 114 26 137 11z m178 -4 c5 -16 95 -1006 94 -1033 -1 -11 -14
41 -29 115 -140 666 -190 905 -190 917 0 18 119 19 125 1z m123 -440 c-1 -249
-3 -436 -5 -416 -23 216 -79 855 -76 861 2 4 22 7 44 7 l39 0 -2 -452z m122
415 c-1 -21 -18 -229 -39 -463 l-39 -425 -1 463 -1 462 40 0 c40 0 40 0 40
-37z m160 30 c0 -14 -180 -926 -195 -988 l-14 -60 5 55 c2 30 9 107 14 170 33
403 71 813 75 821 7 11 115 12 115 2z m106 -33 c24 -17 44 -34 44 -38 0 -7
-106 -331 -232 -712 -37 -113 -68 -199 -68 -191 0 15 177 923 186 954 7 24 19
22 70 -13z m1477 13 c3 -5 -51 -78 -120 -163 -117 -145 -213 -267 -423 -534
-320 -408 -614 -776 -620 -776 -3 0 -13 7 -23 15 -21 15 -20 17 149 233 154
196 319 411 474 616 36 48 134 175 218 284 85 108 177 227 205 264 49 64 54
67 94 68 23 0 44 -3 46 -7z m217 -6 c0 -4 -17 -27 -37 -50 -21 -22 -58 -64
-83 -92 -26 -27 -73 -81 -105 -120 -33 -38 -68 -79 -78 -90 -10 -11 -51 -58
-90 -104 -40 -46 -128 -148 -197 -227 -135 -154 -225 -259 -317 -368 -51 -61
-163 -190 -362 -418 -43 -49 -62 -63 -70 -55 -6 6 -11 15 -11 19 0 8 155 208
269 349 59 73 228 288 283 360 24 31 81 104 128 162 47 58 139 173 205 257 66
84 164 206 218 272 l98 119 75 -3 c41 -2 74 -7 74 -11z m-4240 -54 c23 -27 70
-77 104 -113 88 -94 265 -287 316 -345 25 -27 77 -84 116 -125 116 -123 325
-350 394 -430 36 -41 99 -110 140 -155 42 -44 100 -107 129 -140 30 -33 90
-97 134 -143 77 -79 80 -83 67 -107 -7 -14 -17 -25 -22 -25 -8 0 -201 168
-303 263 -16 16 -47 40 -67 54 -20 14 -52 44 -70 67 -32 42 -399 442 -546 598
-41 42 -88 94 -105 115 -18 21 -75 83 -127 138 -53 55 -121 129 -152 165 l-56
65 -4 83 c-1 45 0 82 3 82 3 0 25 -21 49 -47z m1771 -196 c81 -228 168 -474
280 -789 51 -145 52 -198 1 -75 -16 39 -76 178 -132 307 -56 129 -113 260
-125 290 -12 30 -61 145 -109 255 l-87 200 33 28 c18 15 37 27 43 27 5 0 49
-109 96 -243z m2462 25 c-21 -26 -78 -92 -128 -148 -49 -56 -130 -147 -180
-204 -95 -108 -178 -203 -335 -380 -52 -59 -128 -146 -168 -194 -41 -48 -81
-86 -91 -86 -30 0 -134 -58 -179 -100 -52 -48 -67 -53 -26 -8 16 18 34 37 39
43 184 212 356 411 385 449 14 17 79 93 145 167 128 146 252 288 355 409 35
41 67 77 70 80 3 3 37 41 75 84 l70 79 3 -72 c3 -71 2 -74 -35 -119z m-1503
77 c0 -7 -100 -237 -230 -529 -112 -252 -186 -419 -204 -462 -8 -21 -20 -38
-27 -38 -7 0 -8 7 -4 18 10 24 7 14 175 532 84 256 159 486 168 511 l16 46 53
-35 c29 -20 53 -39 53 -43z m984 -65 c-60 -77 -131 -168 -159 -204 -28 -36
-73 -96 -100 -133 -28 -38 -68 -92 -91 -120 -22 -29 -77 -100 -122 -159 -45
-59 -110 -143 -144 -187 -51 -64 -184 -237 -290 -374 -16 -21 -17 -21 -37 -3
-12 11 -21 23 -21 28 0 5 40 61 90 126 49 64 116 153 149 197 32 44 112 150
178 235 65 86 139 185 166 220 272 369 320 430 338 430 28 0 90 33 118 64 14
14 26 24 28 22 2 -2 -44 -66 -103 -142z m-2126 84 c11 -24 54 -124 97 -223 84
-196 165 -384 244 -567 82 -188 110 -261 105 -270 -3 -4 -15 -8 -28 -8 -18 0
-31 17 -71 93 -26 50 -93 175 -147 276 -182 336 -348 651 -348 659 0 5 17 17
38 26 20 9 48 26 62 36 14 11 26 20 27 20 1 0 11 -19 21 -42z m-897 -109 c35
-45 98 -123 139 -173 42 -50 85 -105 95 -123 11 -17 65 -86 120 -153 55 -67
109 -134 120 -149 27 -38 283 -357 368 -459 l70 -84 -28 -26 -27 -27 -16 25
c-10 13 -66 84 -127 156 -60 73 -162 197 -225 275 -63 78 -140 172 -170 208
-31 36 -96 117 -145 180 -50 63 -124 155 -166 205 -41 50 -99 121 -128 159
l-53 67 55 0 55 0 63 -81z m136 14 c29 -38 89 -117 135 -177 46 -60 142 -182
213 -272 72 -89 175 -220 230 -290 55 -70 140 -176 188 -237 48 -60 86 -115
84 -120 -2 -6 -13 -17 -24 -24 -20 -13 -26 -8 -115 99 -51 62 -107 131 -123
153 -16 22 -70 90 -120 152 -227 281 -565 709 -604 764 -13 18 -11 19 35 19
49 0 50 0 101 -67z m161 15 c21 -29 82 -114 136 -188 53 -74 145 -202 204
-283 434 -601 424 -587 418 -603 -11 -29 -33 -12 -106 82 -41 53 -120 153
-175 223 -457 575 -635 804 -635 816 0 3 27 5 60 5 l59 0 39 -52z m225 -15
c24 -38 83 -131 132 -208 48 -77 122 -194 165 -260 91 -142 245 -384 302 -474
37 -61 39 -66 22 -78 -38 -28 -23 -44 -254 277 -91 126 -134 186 -266 367 -52
73 -118 165 -222 311 -19 26 -45 61 -58 79 -13 17 -24 36 -24 42 0 7 30 11 80
11 l80 0 43 -67z m277 -125 c106 -199 186 -348 358 -668 67 -125 96 -187 88
-192 -29 -19 -52 -7 -87 50 -81 130 -362 573 -492 777 -39 61 -85 134 -104
162 -18 29 -33 55 -33 58 0 3 38 5 84 5 l84 0 102 -192z m1362 115 c-21 -43
-109 -220 -197 -393 -88 -173 -188 -372 -224 -442 -35 -71 -68 -128 -75 -128
-46 1 -41 16 184 520 85 191 173 390 208 473 l21 47 60 0 60 0 -37 -77z m238
72 c0 -2 -114 -193 -252 -424 -139 -231 -280 -467 -314 -523 -59 -101 -75
-117 -102 -99 -14 8 27 93 399 829 l112 222 79 0 c43 0 78 -2 78 -5z m48 -235
c-90 -132 -210 -308 -267 -392 -57 -84 -151 -223 -209 -308 -57 -85 -106 -156
-107 -158 -3 -3 -44 15 -54 24 -4 4 23 50 227 389 80 132 173 288 208 347 34
59 71 120 81 135 11 15 41 67 69 115 l49 88 83 0 83 0 -163 -240z m320 232
c-9 -21 -173 -244 -587 -797 -49 -66 -124 -166 -166 -222 -42 -57 -79 -103
-83 -103 -44 1 -29 28 261 450 154 224 350 513 405 598 l55 82 59 0 c33 0 58
-3 56 -8z m136 -4 c-4 -7 -58 -80 -119 -163 -61 -82 -126 -170 -143 -195 -17
-25 -70 -94 -117 -155 -47 -60 -94 -121 -103 -135 -9 -14 -34 -47 -55 -75 -21
-27 -67 -88 -102 -135 -140 -186 -230 -302 -237 -306 -6 -4 -43 10 -56 22 -2
1 23 38 55 81 124 162 587 786 740 996 55 76 57 77 100 77 33 0 42 -3 37 -12z
m-3488 -228 c40 -41 90 -96 111 -122 21 -25 146 -162 279 -305 132 -142 278
-300 323 -350 l82 -93 -50 0 -50 0 -83 91 c-216 237 -340 371 -419 454 -163
171 -341 369 -348 387 -3 9 -5 37 -3 61 l4 45 41 -47 c22 -25 73 -80 113 -121z
m4099 -47 c-37 -43 -97 -112 -134 -153 -99 -110 -421 -479 -455 -520 -15 -19
-50 -58 -76 -86 l-49 -51 -44 11 -45 11 22 26 c11 14 75 88 141 164 66 75 138
158 160 183 22 26 99 113 170 193 72 81 184 208 250 283 l120 137 3 -60 3 -61
-66 -77z m-4098 -127 c29 -32 96 -104 150 -160 54 -56 115 -122 136 -145 20
-24 74 -82 120 -130 110 -117 241 -263 244 -270 1 -3 -14 -14 -35 -24 l-37
-17 -45 48 c-25 26 -92 99 -150 162 -57 63 -138 151 -180 195 -275 293 -346
369 -352 379 -4 6 -8 38 -8 71 l0 60 53 -55 c28 -30 75 -81 104 -114z m4163
82 l0 -63 -108 -121 c-107 -121 -294 -333 -451 -513 -130 -149 -114 -137 -150
-112 -36 26 -37 24 45 117 34 38 135 152 225 254 89 102 199 226 243 275 45
50 106 121 136 158 30 37 56 67 58 67 1 0 2 -28 2 -62z m-4055 -374 c280 -302
437 -475 434 -478 -2 -1 -25 -17 -51 -34 l-46 -32 -64 67 c-150 158 -218 232
-273 293 -32 36 -86 94 -120 130 -147 155 -143 150 -145 215 -4 133 -9 129 68
50 37 -39 126 -134 197 -211z m4055 168 l0 -87 -47 -57 c-53 -62 -161 -184
-362 -412 -74 -83 -136 -153 -138 -156 -2 -2 -7 0 -11 6 -4 5 -23 21 -42 34
-19 13 -37 25 -39 26 -4 4 34 50 93 114 23 25 84 95 136 155 52 61 115 133
141 160 26 28 64 71 85 97 42 51 177 206 182 207 1 1 2 -38 2 -87z m-4114
-342 c27 -30 118 -128 202 -218 84 -89 152 -166 152 -171 0 -9 -52 -51 -63
-51 -4 0 -229 244 -326 354 -29 34 -79 88 -111 121 -60 63 -63 70 -61 142 l1
43 78 -83 c43 -45 101 -107 128 -137z m4114 133 c0 -57 -2 -60 -63 -129 -34
-39 -73 -84 -86 -100 -13 -16 -70 -81 -126 -144 -55 -63 -116 -134 -135 -157
-18 -24 -36 -43 -39 -43 -3 1 -19 11 -35 24 -34 28 -36 24 75 147 42 46 98
109 125 140 170 195 279 319 281 319 2 0 3 -26 3 -57z m-4200 -219 c14 -16 95
-105 180 -198 85 -92 156 -171 158 -176 2 -4 -18 -23 -44 -41 l-47 -32 -76 84
c-42 46 -124 134 -183 196 l-108 112 0 93 0 93 48 -51 c26 -27 58 -64 72 -80z
m4200 16 l0 -89 -87 -99 c-49 -54 -119 -135 -158 -180 -38 -45 -77 -81 -85
-81 -8 0 -30 12 -49 28 l-34 28 64 79 c35 43 105 124 154 180 50 56 113 129
140 162 28 34 51 61 53 61 1 1 2 -39 2 -89z m-4069 -392 l89 -96 -42 -32 -43
-31 -35 39 c-19 22 -75 83 -125 137 -85 91 -90 99 -95 148 -3 29 -3 63 -1 77
5 27 8 23 252 -242z m2203 228 c87 -24 212 -86 282 -138 90 -69 234 -227 234
-258 0 -3 -323 -4 -717 -3 -395 2 -728 3 -741 3 l-23 0 22 33 c73 105 221 242
313 289 60 30 163 68 231 83 81 19 318 13 399 -9z m1760 -256 c-58 -66 -110
-120 -114 -120 -4 0 -23 13 -43 28 l-35 28 61 70 c34 39 100 115 147 168 l85
98 3 -76 3 -77 -107 -119z m-4056 -78 l72 -80 -39 -31 -39 -31 -53 62 c-30 35
-64 74 -76 88 -19 21 -23 36 -23 95 l1 70 42 -47 c23 -26 75 -82 115 -126z
m4125 -39 c-88 -110 -85 -108 -128 -63 l-29 30 30 33 c98 105 128 139 143 159
15 22 16 21 19 -45 3 -65 2 -69 -35 -114z m-4192 -88 l36 -40 -63 -59 -64 -58
0 132 0 132 27 -34 c14 -18 43 -51 64 -73z m4236 -28 c0 -51 -1 -95 -3 -99 -2
-4 -25 15 -50 42 l-45 49 43 54 c24 29 45 52 48 50 3 -3 6 -46 7 -96z m-717
-52 l0 -65 -1402 2 -1403 3 -3 63 -3 62 1406 0 1405 0 0 -65z m-1542 -356 l2
-227 -158 -3 c-156 -4 -159 -5 -208 -34 -68 -42 -94 -95 -94 -192 0 -69 -1
-73 -22 -73 -43 1 -131 147 -182 300 -34 101 -49 255 -35 361 5 45 12 86 15
91 3 5 157 7 342 6 l337 -3 3 -226z m250 -1 l2 -228 -95 0 -95 0 0 223 c0 123
3 227 7 231 4 4 46 5 93 4 l85 -3 3 -227z m769 195 c4 -21 7 -99 7 -173 -1
-115 -6 -148 -28 -223 -43 -144 -148 -335 -179 -324 -7 2 -14 35 -17 88 -6 91
-24 137 -71 171 -40 30 -92 38 -261 38 l-158 0 0 230 0 230 350 0 349 0 8 -37z
m-2973 -65 c22 -8 46 -24 54 -36 13 -20 12 -24 -16 -51 -28 -28 -32 -29 -68
-19 -50 15 -248 15 -298 0 -33 -9 -44 -8 -76 8 -49 25 -56 44 -23 70 68 54
311 69 427 28z m4391 -3 c56 -8 131 -40 139 -60 3 -8 -3 -24 -14 -37 -16 -21
-25 -23 -87 -19 -125 7 -257 6 -311 -2 -48 -7 -54 -6 -77 18 -22 21 -24 28
-15 46 7 11 28 28 48 36 37 15 194 33 242 27 14 -1 47 -6 75 -9z m-4821 -170
c-4 -8 -8 -15 -10 -15 -2 0 -4 7 -4 15 0 8 4 15 10 15 5 0 7 -7 4 -15z m386 4
c25 -6 53 -17 62 -26 26 -23 23 -69 -5 -88 -21 -13 -31 -13 -98 1 -76 16 -150
14 -235 -8 -59 -14 -88 2 -80 45 8 40 23 55 72 72 46 17 219 19 284 4z m4442
-16 c35 -7 100 -70 96 -92 -6 -31 -48 -40 -118 -25 -84 18 -161 17 -229 -1
-60 -16 -87 -8 -100 28 -11 30 6 63 40 77 64 27 212 33 311 13z m148 -9 c6
-14 10 -32 10 -40 0 -23 -17 -16 -24 10 -3 13 -9 31 -12 40 -3 9 -1 16 5 16 6
0 16 -12 21 -26z m-4585 -165 c35 -17 44 -49 17 -65 -13 -9 -34 -9 -73 -2 -30
6 -88 7 -129 3 -114 -10 -130 -9 -148 9 -15 15 -15 17 0 32 9 9 38 23 65 30
62 18 227 13 268 -7z m4565 -5 c0 -8 -5 -12 -10 -9 -6 4 -8 11 -5 16 9 14 15
11 15 -7z m-97 -18 c20 -10 37 -25 37 -33 0 -21 -59 -43 -88 -32 -31 12 -179
11 -221 -1 -28 -8 -38 -6 -53 7 -14 13 -26 53 -15 53 1 0 20 7 42 15 58 22
246 16 298 -9z m-3364 -31 c10 -10 -46 -86 -78 -103 -76 -43 -149 -37 -212 15
-27 23 -59 71 -59 90 0 7 341 5 349 -2z m2401 2 c0 -8 -13 -32 -29 -54 -74
-102 -238 -92 -300 18 -12 20 -21 39 -21 43 0 3 79 6 175 6 140 0 175 -3 175
-13z m-850 -30 c54 -19 80 -66 80 -149 l0 -68 -567 2 -568 3 -3 42 c-6 86 35
165 91 176 12 2 227 5 477 5 328 1 465 -2 490 -11z m-3009 -64 c-8 -15 -10
-15 -11 -2 0 17 10 32 18 25 2 -3 -1 -13 -7 -23z m319 4 c27 -9 36 -18 38 -39
5 -42 -26 -52 -153 -52 -112 0 -165 12 -165 37 0 19 32 46 66 57 43 12 174 11
214 -3z m4560 -13 c0 -8 -4 -12 -10 -9 -5 3 -10 10 -10 16 0 5 5 9 10 9 6 0
10 -7 10 -16z m-1647 -216 c38 -20 46 -40 47 -115 l0 -73 -795 0 -795 0 0 71
c0 65 2 73 29 100 l29 29 732 0 c537 0 737 -3 753 -12z m226 -273 c40 -20 66
-86 51 -130 -6 -17 -22 -43 -36 -56 l-26 -24 -954 -3 c-871 -2 -958 -1 -990
14 -59 28 -80 94 -49 154 33 64 -36 60 1018 60 821 0 962 -2 986 -15z"/>
<path d="M4627 2693 c-11 -10 -8 -113 2 -113 5 0 11 10 13 23 2 17 11 23 37
27 70 10 63 70 -9 70 -20 0 -40 -3 -43 -7z m79 -24 c3 -6 0 -15 -7 -20 -21
-14 -52 -6 -55 14 -2 13 5 17 26 17 16 0 32 -5 36 -11z"/>
<path d="M4780 2680 c-40 -40 -12 -100 45 -100 41 0 65 22 65 59 0 56 -70 81
-110 41z m88 -37 c3 -27 -1 -35 -22 -45 -22 -9 -29 -8 -46 7 -38 35 -17 78 35
73 26 -3 30 -8 33 -35z"/>
<path d="M4930 2640 l0 -60 39 0 c47 0 71 20 71 60 0 40 -24 60 -71 60 l-39 0
0 -60z m85 1 c0 -29 -4 -36 -27 -42 -34 -9 -38 -4 -38 43 0 38 1 39 33 36 29
-3 32 -6 32 -37z"/>
<path d="M5080 2640 l0 -60 56 0 c37 0 53 4 48 11 -3 6 -22 9 -40 7 -28 -3
-34 -1 -34 14 0 14 8 18 35 18 19 0 35 5 35 10 0 6 -16 10 -35 10 -24 0 -35 5
-35 15 0 10 11 15 35 15 19 0 35 5 35 10 0 6 -22 10 -50 10 l-50 0 0 -60z"/>
<path d="M5230 2641 c0 -34 4 -61 10 -61 6 0 10 11 10 25 0 18 5 25 20 25 11
0 27 -11 36 -25 9 -14 23 -25 32 -25 12 0 10 6 -8 25 -23 25 -23 25 -4 39 31
24 7 50 -50 54 l-46 3 0 -60z m85 24 c0 -5 -15 -11 -32 -13 -25 -3 -33 1 -33
13 0 12 8 16 33 13 17 -2 32 -7 32 -13z"/>
<path d="M4390 2365 l0 -65 50 0 c28 0 50 5 50 10 0 6 -18 10 -40 10 -29 0
-40 4 -40 15 0 10 10 15 29 15 17 0 33 5 36 10 4 6 -8 10 -29 10 -29 0 -36 4
-36 20 0 17 7 20 40 20 22 0 40 5 40 10 0 6 -22 10 -50 10 l-50 0 0 -65z"/>
<path d="M4542 2418 c-24 -24 -13 -47 28 -59 48 -14 54 -39 10 -39 -16 0 -30
5 -30 10 0 6 -7 10 -17 10 -14 0 -14 -2 2 -20 32 -35 95 -21 95 22 0 12 -13
21 -40 28 -24 6 -40 17 -40 25 0 18 41 20 58 3 17 -17 28 -2 12 17 -15 18 -61
20 -78 3z"/>
<path d="M4677 2423 c-9 -17 -7 -112 3 -118 6 -4 10 4 10 19 0 22 5 26 29 26
42 0 48 18 9 22 -22 2 -34 9 -36 21 -3 14 4 17 37 17 23 0 41 5 41 10 0 11
-87 14 -93 3z"/>
<path d="M4810 2377 c0 -59 12 -77 50 -77 14 0 31 5 38 12 15 15 17 122 2 113
-5 -3 -10 -28 -10 -56 0 -48 -1 -49 -30 -49 -30 0 -30 1 -30 55 0 30 -4 55
-10 55 -5 0 -10 -24 -10 -53z"/>
<path d="M4960 2365 l0 -65 50 0 c28 0 50 5 50 10 0 6 -18 10 -41 10 -33 0
-40 3 -37 18 2 13 11 16 36 14 18 -2 32 1 32 7 0 6 -16 11 -35 11 -28 0 -35 4
-35 20 0 17 7 20 40 20 22 0 40 5 40 10 0 6 -22 10 -50 10 l-50 0 0 -65z"/>
<path d="M5100 2365 c0 -37 4 -65 10 -65 6 0 10 11 10 25 0 20 5 25 24 25 14
0 30 -10 40 -25 9 -14 21 -25 27 -25 7 0 4 11 -6 26 -12 19 -14 29 -6 37 16
16 13 54 -5 61 -9 3 -33 6 -55 6 l-39 0 0 -65z m90 25 c0 -16 -7 -20 -35 -20
-28 0 -35 4 -35 20 0 16 7 20 35 20 28 0 35 -4 35 -20z"/>
<path d="M5255 2421 c-3 -6 11 -11 32 -13 l38 -3 -38 -41 c-20 -23 -37 -47
-37 -53 0 -7 20 -11 50 -11 57 0 68 17 14 22 l-35 3 35 42 c20 22 36 46 36 52
0 13 -86 15 -95 2z"/>
<path d="M5408 2416 c-24 -18 -24 -78 0 -99 28 -25 67 -21 91 10 47 59 -31
135 -91 89z m80 -49 c3 -31 0 -39 -20 -46 -35 -13 -58 4 -58 43 0 41 7 48 45
44 27 -3 30 -7 33 -41z"/>
<path d="M4254 2125 c-8 -21 12 -42 47 -50 38 -9 39 -35 0 -35 -16 0 -31 6
-34 13 -2 6 -8 8 -13 4 -5 -5 -1 -15 10 -23 38 -27 86 -12 86 28 0 11 -13 21
-40 29 -22 7 -40 16 -40 21 0 15 32 21 51 10 25 -16 30 -15 23 3 -8 21 -83 21
-90 0z"/>
<path d="M4395 2095 c4 -56 18 -75 54 -75 39 0 51 17 51 72 0 62 -18 63 -22 1
-3 -44 -5 -48 -30 -51 -21 -3 -28 1 -29 15 0 10 -2 31 -2 47 -1 16 -7 31 -14
33 -9 3 -11 -9 -8 -42z"/>
<path d="M4550 2080 c0 -33 4 -60 10 -60 6 0 10 11 10 24 0 20 6 25 31 28 35
3 56 26 46 52 -5 11 -19 16 -52 16 l-45 0 0 -60z m78 28 c3 -14 -3 -18 -27
-18 -25 0 -31 4 -31 21 0 16 5 20 27 17 17 -2 29 -10 31 -20z"/>
<path d="M4692 2083 l3 -58 44 -3 c24 -2 49 2 54 7 8 8 -3 11 -37 11 -40 0
-47 3 -44 18 2 12 15 18 43 21 l40 5 -40 5 c-26 4 -40 11 -40 21 0 10 14 17
40 21 39 6 39 6 -13 8 l-53 1 3 -57z"/>
<path d="M4840 2079 c0 -39 4 -58 10 -54 6 4 10 16 8 27 -5 34 19 32 52 -3 32
-35 52 -34 27 2 -12 16 -13 26 -5 39 20 32 3 50 -47 50 l-45 0 0 -61z m75 31
c0 -9 -11 -16 -27 -18 -23 -3 -28 1 -28 18 0 17 5 21 28 18 16 -2 27 -9 27
-18z"/>
<path d="M5002 2087 c-24 -58 -26 -67 -13 -67 5 0 11 9 14 20 6 24 67 29 67 6
0 -16 18 -31 26 -23 8 8 -49 117 -61 117 -6 0 -21 -24 -33 -53z m48 2 c0 -10
-7 -19 -15 -19 -16 0 -19 9 -9 34 8 20 24 11 24 -15z"/>
<path d="M5140 2121 c-23 -43 3 -101 44 -101 29 0 81 39 54 40 -10 0 -18 -5
-18 -11 0 -6 -14 -9 -32 -7 -30 3 -33 6 -33 37 0 43 25 62 56 43 22 -14 35
-10 24 7 -3 6 -24 11 -45 11 -29 0 -42 -5 -50 -19z"/>
<path d="M5290 2080 c0 -33 4 -60 10 -60 6 0 10 27 10 60 0 33 -4 60 -10 60
-6 0 -10 -27 -10 -60z"/>
<path d="M5367 2122 c-23 -25 -21 -58 3 -82 24 -24 57 -26 88 -4 26 18 30 65
6 88 -21 22 -77 20 -97 -2z m81 -4 c28 -28 7 -78 -33 -78 -27 0 -45 18 -45 45
0 27 18 45 45 45 12 0 26 -5 33 -12z"/>
<path d="M5520 2080 c0 -70 17 -81 22 -14 l3 46 32 -46 c18 -25 37 -46 43 -46
6 0 10 26 10 60 0 68 -17 82 -22 18 l-3 -43 -30 42 c-42 60 -55 56 -55 -17z"/>
<path d="M1470 3344 c-62 -87 -137 -159 -215 -206 l-54 -33 -3 -1125 -3 -1125
-23 -63 c-22 -61 -70 -149 -101 -185 -13 -16 -13 -19 -1 -27 23 -15 148 -11
218 5 80 19 106 33 170 90 90 81 148 228 171 435 6 52 22 511 36 1020 13 509
26 970 28 1025 l3 100 -79 82 c-44 46 -83 83 -86 83 -4 0 -31 -34 -61 -76z"/>
<path d="M1924 3324 l-81 -96 -7 -257 c-4 -141 -11 -404 -17 -586 -5 -181 -14
-532 -19 -780 -9 -417 -20 -583 -46 -670 -9 -30 78 57 148 148 124 162 205
360 233 572 14 103 16 230 14 875 -2 415 -5 762 -7 770 -5 16 -117 120 -130
120 -4 0 -44 -43 -88 -96z"/>
<path d="M7762 3322 l-62 -57 0 -810 c0 -889 1 -912 61 -1089 36 -109 83 -204
148 -299 51 -75 147 -187 160 -187 4 0 2 28 -6 63 -19 90 -31 336 -43 887 -6
267 -15 634 -20 815 -5 182 -10 376 -11 433 l-3 103 -55 73 c-77 100 -98 126
-102 126 -2 -1 -32 -26 -67 -58z"/>
<path d="M8209 3288 l-89 -83 5 -235 c10 -461 44 -1667 50 -1790 18 -361 119
-564 315 -636 47 -17 290 -33 290 -19 0 4 -15 28 -33 54 -18 25 -47 75 -63
111 l-29 65 -3 1142 -2 1143 -63 41 c-103 70 -169 133 -222 213 -27 41 -54 76
-58 76 -4 0 -48 -37 -98 -82z"/>
<path d="M2560 2448 c-1 -131 -12 -267 -36 -425 -10 -62 -15 -115 -12 -118 3
-3 28 3 56 14 l50 20 61 -83 c93 -129 178 -194 321 -247 l85 -32 430 -4 c237
-3 432 -7 434 -9 15 -14 -49 -313 -89 -422 -49 -130 -133 -263 -218 -345 -52
-48 -78 -68 -164 -120 -26 -16 -27 -18 -13 -51 16 -38 9 -76 -24 -130 -12 -18
-21 -36 -21 -39 0 -8 71 -34 131 -47 l56 -13 14 -104 c7 -61 18 -107 25 -110
29 -11 281 82 344 127 15 11 30 20 33 20 2 0 8 -45 12 -100 6 -89 9 -100 26
-100 28 0 249 74 307 104 28 14 54 26 56 26 3 0 10 -19 17 -42 10 -39 7 -115
-8 -190 -5 -27 -4 -28 40 -28 90 0 219 80 341 212 l75 80 78 -78 c122 -124
269 -213 351 -214 l42 0 0 131 c0 101 3 130 13 126 6 -3 53 -24 102 -46 50
-22 127 -53 171 -69 l82 -29 6 36 c3 20 8 69 12 109 4 39 9 72 11 72 3 0 17
-8 31 -19 54 -38 173 -92 258 -116 47 -14 90 -25 94 -25 9 0 16 40 25 146 l7
72 51 6 c29 4 73 14 99 22 l48 16 -24 31 c-43 56 -49 85 -30 135 9 24 15 44
13 45 -142 90 -180 124 -261 231 -68 91 -135 224 -173 349 -28 92 -62 251 -67
312 l-3 40 495 5 c483 5 496 6 554 28 118 45 203 116 270 228 20 34 36 66 36
72 0 21 18 21 75 2 32 -11 61 -20 65 -20 4 0 1 28 -6 63 -25 116 -44 322 -44
465 0 136 -1 142 -19 133 -15 -9 -19 -28 -25 -127 -8 -126 -34 -277 -65 -365
-57 -165 -159 -292 -288 -358 -105 -53 -29 -51 -1938 -51 -1968 0 -1815 -5
-1970 69 -97 46 -186 125 -249 220 -92 137 -126 262 -132 471 -4 177 -24 208
-24 38z m1536 -879 c95 -40 152 -104 189 -208 l12 -35 46 63 c26 35 55 85 64
112 20 55 33 60 89 33 40 -19 82 -67 113 -129 l22 -44 51 57 c29 31 75 74 102
95 l51 38 6 -63 c4 -35 7 -105 8 -156 l1 -92 -27 7 c-16 5 -53 7 -83 6 -30 -1
-93 -2 -139 -2 -87 0 -144 -13 -174 -39 -15 -13 -25 -14 -75 -2 -62 14 -198
17 -248 5 -29 -6 -32 -5 -37 23 -6 29 -40 72 -72 89 -14 8 -12 23 11 123 29
131 32 140 38 140 2 0 26 -9 52 -21z m1668 -125 l23 -110 -32 -21 c-21 -14
-39 -39 -50 -66 l-17 -45 -44 15 c-48 16 -134 14 -222 -7 -50 -12 -56 -11
-106 14 -46 23 -65 27 -142 27 -49 0 -114 1 -144 2 -30 1 -67 -1 -82 -6 l-28
-7 0 149 c0 82 4 152 9 155 12 8 95 -59 157 -126 l51 -56 21 43 c38 79 102
137 160 146 20 3 26 -4 45 -51 23 -56 74 -136 99 -158 12 -9 18 -2 32 44 28
88 113 168 206 194 32 9 34 4 64 -136z m-1810 -523 c27 -30 14 -94 -40 -199
-50 -98 -87 -146 -173 -221 l-60 -52 -63 21 c-35 12 -68 23 -75 25 -8 3 -7 15
3 46 11 31 12 50 5 71 -10 28 -8 30 63 82 86 64 193 177 226 239 l24 45 36
-18 c19 -10 43 -27 54 -39z m534 -1 l33 -39 -11 -126 c-10 -134 -39 -289 -67
-369 -16 -44 -23 -51 -88 -84 -75 -38 -235 -93 -247 -86 -5 3 -8 48 -8 101 l0
97 49 71 c63 90 117 198 150 297 23 68 33 82 84 127 32 28 61 51 65 51 4 0 22
-18 40 -40z m1449 18 c27 -58 114 -156 202 -226 l96 -78 2 -54 c1 -30 3 -66 5
-78 3 -21 -4 -26 -57 -43 -33 -11 -69 -17 -80 -15 -38 9 -171 150 -214 227
-53 95 -85 194 -71 220 12 21 78 69 96 69 6 0 15 -10 21 -22z m-531 -45 c35
-31 64 -63 64 -71 0 -18 67 -186 93 -232 11 -19 45 -72 75 -118 l54 -83 -7
-94 c-4 -52 -10 -95 -15 -95 -23 0 -171 54 -235 86 -69 35 -75 40 -89 83 -30
93 -48 179 -62 291 -21 181 -20 205 19 250 17 22 33 40 35 40 2 0 32 -26 68
-57z m-253 2 l54 -25 6 -138 c6 -153 25 -255 66 -352 l27 -65 -20 -45 c-13
-30 -20 -67 -20 -112 0 -42 -4 -68 -11 -68 -22 0 -151 68 -181 96 -54 49 -93
114 -118 193 -29 91 -50 287 -41 375 l7 62 81 52 c45 29 85 52 88 52 4 0 31
-11 62 -25z m-377 -26 c58 -38 64 -44 71 -87 15 -90 9 -322 -11 -387 -40 -132
-113 -226 -217 -277 -97 -47 -94 -48 -95 35 0 52 -6 86 -22 122 l-22 50 24 60
c32 80 62 224 76 365 6 63 12 115 13 115 1 0 22 10 47 22 25 12 51 22 59 22 8
1 43 -17 77 -40z m-629 -12 c40 -13 76 -26 79 -30 8 -7 -26 -97 -70 -187 -68
-137 -163 -248 -262 -306 -49 -29 -148 -64 -181 -64 -20 0 -23 5 -23 38 0 20
-3 46 -6 58 -5 18 4 26 48 52 123 69 245 238 321 445 8 21 7 21 94 -6z m1613
-71 c66 -168 165 -298 285 -376 l67 -44 -7 -55 c-4 -31 -8 -57 -10 -59 -7 -7
-127 29 -172 52 -143 72 -269 234 -351 454 -17 45 -18 54 -6 59 28 10 159 51
161 50 1 -1 15 -38 33 -81z"/>
</g>
</svg>
