<?xml version="1.0" standalone="no"?>
<!DOCTYPE svg PUBLIC "-//W3C//DTD SVG 20010904//EN"
 "http://www.w3.org/TR/2001/REC-SVG-20010904/DTD/svg10.dtd">
<svg version="1.0" xmlns="http://www.w3.org/2000/svg"
 width="492.000000pt" height="492.000000pt" viewBox="0 0 492.000000 492.000000"
 preserveAspectRatio="xMidYMid meet">

<g transform="translate(0.000000,492.000000) scale(0.100000,-0.100000)"
fill="#ffdb70" stroke="none">
<path d="M2110 4874 c-124 -19 -316 -67 -444 -110 -137 -48 -399 -178 -521
-259 -533 -356 -900 -894 -1039 -1522 -24 -107 -26 -103 47 -103 l62 0 31 128
c172 700 698 1298 1375 1562 183 71 391 122 592 146 l57 6 0 84 0 84 -32 -1
c-18 -1 -76 -7 -128 -15z"/>
<path d="M2610 4807 l0 -83 129 -17 c745 -97 1403 -567 1740 -1244 85 -171
137 -317 191 -540 l11 -43 75 0 c72 0 74 1 70 23 -122 584 -390 1053 -809
1413 -294 252 -623 422 -1001 514 -120 30 -308 60 -371 60 l-35 0 0 -83z"/>
<path d="M2145 4653 c-791 -106 -1464 -640 -1768 -1403 -39 -96 -107 -327
-107 -361 0 -5 56 -9 130 -9 l130 0 0 -485 0 -485 -121 0 c-110 0 -120 -2
-115 -17 79 -274 162 -460 293 -663 320 -492 835 -847 1403 -964 69 -15 160
-30 203 -34 l77 -8 0 98 0 98 170 0 170 0 0 -100 0 -100 38 5 c340 44 535 101
792 230 458 230 822 611 1034 1082 43 96 106 274 120 340 l8 33 -76 0 -76 0 0
485 0 485 85 0 c74 0 85 2 85 18 0 9 -13 67 -30 128 -214 799 -878 1431 -1678
1598 -64 13 -142 27 -172 30 -30 4 -72 9 -92 12 l-38 6 0 -101 0 -101 -170 0
-170 0 0 100 c0 55 -3 100 -7 99 -5 -1 -57 -8 -118 -16z m63 -769 l22 -15 0
-965 c0 -952 0 -965 21 -1027 64 -191 211 -321 409 -363 138 -30 379 -3 515
57 68 30 172 100 217 146 20 21 53 65 72 97 l36 60 0 966 c0 738 3 969 12 978
8 8 48 12 113 12 65 0 105 -4 113 -12 9 -9 12 -233 12 -944 0 -606 4 -960 11
-1011 13 -100 43 -198 87 -293 60 -129 72 -175 72 -271 0 -66 -4 -91 -16 -103
-13 -14 -54 -16 -289 -16 -309 0 -295 -4 -295 78 0 76 -42 172 -75 172 -6 0
-42 -25 -80 -55 -206 -163 -533 -235 -1024 -222 -154 4 -250 11 -335 26 -352
62 -570 207 -637 422 -18 58 -19 108 -19 1089 l0 1029 24 27 c23 27 27 28 492
90 258 34 480 62 494 63 14 0 36 -6 48 -15z"/>
<path d="M135 1823 c114 -423 347 -820 656 -1118 396 -382 863 -600 1432 -669
l47 -6 0 70 c0 39 -4 70 -9 70 -5 0 -45 5 -88 10 -419 56 -816 223 -1137 478
-364 289 -649 715 -772 1155 l-28 97 -62 0 -63 0 24 -87z"/>
<path d="M4657 1903 c-3 -5 -14 -43 -26 -87 -141 -515 -510 -1007 -979 -1303
-225 -142 -489 -248 -752 -302 -84 -18 -243 -41 -277 -41 -9 0 -13 -20 -13
-71 l0 -71 63 7 c464 48 873 209 1242 488 109 83 310 281 408 402 201 249 343
522 441 848 20 65 36 122 36 128 0 11 -137 13 -143 2z"/>
</g>
</svg>
