<?xml version="1.0" standalone="no"?>
<!DOCTYPE svg PUBLIC "-//W3C//DTD SVG 20010904//EN"
 "http://www.w3.org/TR/2001/REC-SVG-20010904/DTD/svg10.dtd">
<svg version="1.0" xmlns="http://www.w3.org/2000/svg"
 width="623.000000pt" height="623.000000pt" viewBox="0 0 623.000000 623.000000"
 preserveAspectRatio="xMidYMid meet">


<circle cx="311.5" cy="311.5" r="309" fill="#443e2f"/>

<g transform="translate(0.000000,623.000000) scale(0.100000,-0.100000)"
fill="#ffdb70" stroke="none">

<path d="M2810 6224 c-14 -2 -65 -9 -115 -15 -724 -89 -1447 -479 -1932 -1044
-380 -441 -622 -953 -717 -1515 -167 -986 139 -1979 828 -2689 453 -466 1000
-766 1626 -891 229 -46 333 -55 615 -55 282 0 386 9 615 55 629 126 1177 427
1630 896 145 150 227 252 345 429 332 497 500 1024 522 1630 27 781 -241 1537
-760 2140 -432 503 -1062 874 -1702 1005 -234 48 -281 52 -610 55 -176 2 -331
1 -345 -1z m730 -59 c488 -77 874 -224 1267 -482 298 -195 592 -479 806 -777
523 -730 699 -1661 478 -2536 -97 -386 -282 -771 -525 -1094 -443 -588 -1091
-1002 -1808 -1155 -419 -90 -867 -90 -1286 0 -809 173 -1522 675 -1963 1380
-94 151 -227 423 -284 584 -277 770 -231 1636 125 2370 162 334 355 601 626
866 500 488 1122 780 1829 859 130 14 613 5 735 -15z"/>
<path d="M2885 6084 c-16 -2 -73 -9 -125 -15 -438 -50 -897 -217 -1270 -463
-179 -118 -316 -230 -471 -385 -462 -462 -742 -1022 -846 -1691 -23 -146 -26
-632 -5 -780 77 -541 273 -1013 601 -1445 96 -126 386 -419 511 -515 466 -357
948 -553 1535 -621 129 -15 471 -15 600 0 587 68 1069 264 1535 621 125 96
415 389 511 515 328 432 524 904 601 1445 21 148 18 634 -5 780 -89 569 -296
1041 -650 1480 -90 111 -318 335 -437 430 -426 339 -901 542 -1460 626 -100
15 -553 28 -625 18z m82 -250 c12 -8 27 -23 33 -34 18 -34 -16 -37 -46 -5 -22
24 -31 27 -71 22 -67 -7 -88 -33 -88 -107 0 -52 4 -63 28 -87 52 -52 171 -28
159 32 -4 24 -8 27 -43 23 -27 -2 -40 1 -44 11 -7 18 -9 18 62 26 l61 7 4 -57
c3 -54 1 -59 -27 -78 -43 -31 -139 -35 -183 -7 -77 48 -84 180 -13 244 40 36
119 41 168 10z m309 -123 c30 -79 54 -145 54 -146 0 -1 -11 0 -25 2 -18 4 -28
16 -38 47 l-14 41 -59 3 -60 3 -15 -43 c-12 -31 -22 -44 -39 -46 -27 -4 -31
-20 43 161 47 116 54 127 76 125 20 -3 30 -21 77 -147z m219 123 c50 -6 66
-13 94 -41 32 -32 33 -35 29 -103 -4 -77 -24 -115 -72 -139 -23 -10 -43 -11
-104 -2 -42 6 -77 12 -78 14 -1 1 8 66 20 144 17 117 23 142 36 139 8 -3 42
-8 75 -12z m-861 -55 c38 -30 56 -71 56 -129 0 -94 -45 -140 -138 -140 -83 0
-134 59 -135 155 -2 87 47 134 139 135 37 0 59 -6 78 -21z m1257 -32 c70 -47
86 -136 38 -214 -50 -81 -167 -85 -228 -7 -45 57 -18 186 47 227 39 24 102 21
143 -6z m-1586 -52 c27 -26 31 -46 15 -76 -8 -15 -7 -19 5 -19 49 0 76 -98 36
-134 -26 -23 -152 -69 -161 -59 -9 11 -90 241 -90 257 0 13 109 54 148 55 13
1 34 -10 47 -24z m1871 -41 c42 -20 64 -49 64 -86 0 -21 -5 -28 -20 -28 -14 0
-20 7 -20 23 0 41 -69 85 -103 66 -29 -16 -20 -52 19 -78 49 -34 84 -78 84
-107 0 -40 -42 -74 -90 -74 -75 0 -130 45 -130 107 0 26 4 33 20 33 15 0 20
-7 20 -28 0 -56 82 -101 120 -67 11 10 20 24 20 31 0 6 -27 35 -60 64 -54 47
-60 56 -60 90 0 65 62 89 136 54z m-2103 -179 c91 -82 97 -90 78 -99 -18 -8
-28 -3 -55 23 l-32 32 -56 -26 -56 -25 6 -46 c4 -43 -5 -63 -29 -64 -3 0 -11
69 -17 153 -11 140 -11 153 5 164 19 15 10 21 156 -112z m2391 39 c13 -5 16
-22 16 -85 0 -47 4 -79 10 -79 6 0 38 14 71 30 55 28 99 33 99 11 0 -4 -41
-25 -91 -47 -85 -36 -92 -42 -120 -91 -26 -46 -33 -52 -49 -43 -18 10 -18 13
14 65 33 55 33 57 28 150 -2 52 -2 95 1 95 3 0 12 -3 21 -6z m-2805 -87 c8
-11 -4 -24 -59 -61 -73 -50 -74 -51 -37 -101 15 -19 17 -18 75 23 65 45 77 49
85 29 3 -8 -20 -30 -59 -57 -35 -24 -64 -46 -64 -50 0 -3 12 -20 28 -38 l27
-33 67 46 c72 48 84 52 90 33 4 -12 -150 -128 -169 -128 -9 0 -148 196 -159
224 -4 10 19 31 78 70 45 31 83 56 84 56 1 0 7 -6 13 -13z m1816 -126 c641
-109 1187 -478 1528 -1031 161 -262 274 -600 308 -919 15 -142 6 -450 -16
-581 -163 -965 -928 -1710 -1885 -1834 -158 -21 -432 -21 -590 0 -956 124
-1722 869 -1885 1834 -22 130 -31 448 -16 580 76 670 424 1246 973 1610 312
206 643 323 1033 364 102 11 434 -3 550 -23z m1413 -84 c8 -9 -2 -52 -35 -157
-25 -80 -47 -147 -50 -149 -2 -3 -11 2 -19 11 -15 15 -15 20 -1 61 l15 44 -45
38 -45 38 -38 -22 c-36 -20 -75 -20 -68 1 4 10 248 147 264 148 6 0 16 -6 22
-13z m-3432 -18 c67 -41 102 -140 71 -196 -16 -29 -105 -105 -117 -101 -6 2
-51 50 -100 107 l-90 104 42 36 c90 78 132 89 194 50z m3688 -245 c9 -35 -21
-78 -57 -82 -23 -3 -27 -8 -27 -33 0 -35 -39 -79 -70 -79 -12 0 -31 5 -43 11
-26 13 -117 100 -117 111 0 5 46 53 103 108 l102 100 51 -54 c28 -30 54 -67
58 -82z m-3993 -74 c72 -37 105 -121 73 -187 -28 -56 -78 -86 -136 -80 -112
10 -180 123 -130 215 37 70 116 91 193 52z m4145 -85 c36 -23 68 -98 60 -141
-25 -133 -221 -171 -281 -54 -66 127 101 274 221 195z m-4222 -286 c5 -5 4
-15 -4 -24 -11 -13 -26 -5 -124 61 -137 94 -132 90 -117 108 11 13 29 4 124
-61 62 -42 116 -80 121 -84z m4414 -4 c56 -47 76 -143 36 -176 -24 -19 -36 2
-22 39 17 44 -9 98 -57 118 -31 12 -39 12 -75 -2 -45 -18 -90 -66 -90 -96 0
-31 29 -85 55 -102 19 -13 29 -14 49 -5 l25 12 -20 39 c-17 34 -18 39 -4 44 9
4 17 5 19 3 12 -17 57 -101 54 -103 -25 -18 -83 -46 -95 -46 -24 0 -81 47 -98
80 -23 44 -19 122 7 155 54 69 159 88 216 40z m-4658 -5 c0 -15 -7 -20 -26
-20 -39 0 -60 -16 -78 -59 -18 -46 -11 -74 25 -107 57 -51 111 -58 153 -19 50
46 59 104 21 129 -25 16 -25 16 -42 -19 -16 -33 -32 -43 -46 -29 -6 7 37 99
50 107 15 9 93 -45 99 -68 14 -55 -31 -142 -89 -171 -87 -45 -217 36 -217 136
0 68 60 140 118 140 25 0 32 -4 32 -20z m-207 -268 c3 -4 -5 -33 -18 -65 -40
-98 -40 -95 1 -112 20 -8 37 -15 39 -15 1 0 14 32 29 70 21 53 32 70 47 70 10
0 19 -2 19 -4 0 -2 -14 -36 -30 -76 -17 -40 -29 -74 -28 -74 34 -16 80 -36 82
-36 2 0 18 36 37 80 30 72 45 91 61 74 5 -5 -65 -190 -76 -201 -3 -3 -252 94
-265 103 -2 2 14 46 35 98 33 86 53 112 67 88z m5042 -63 c6 -18 -12 -41 -101
-130 -98 -98 -110 -108 -122 -92 -10 15 -7 22 22 53 l34 35 -22 55 -22 55 -46
-3 c-38 -3 -48 0 -57 17 -11 20 -8 20 81 24 240 8 226 9 233 -14z m90 -246
c10 -32 19 -71 21 -88 11 -68 -72 -134 -168 -135 -68 0 -100 31 -128 121 -12
39 -19 73 -17 75 3 4 251 80 269 83 4 0 14 -25 23 -56z m-4991 -31 c5 -8 -38
-159 -48 -169 -5 -6 -258 66 -269 77 -4 3 -5 14 -2 22 5 14 21 11 118 -18 62
-18 117 -34 123 -34 7 0 20 29 29 65 16 59 34 80 49 57z m-137 -223 c37 -23
69 -94 58 -131 -24 -86 -62 -118 -139 -118 -98 0 -156 49 -156 132 0 74 34
124 95 141 34 9 108 -4 142 -24z m5055 -55 c161 -33 158 -32 158 -57 0 -17
-28 -39 -127 -99 -79 -48 -131 -74 -136 -69 -16 16 0 40 38 58 34 16 36 20 30
53 -15 91 -13 87 -60 94 -31 5 -44 12 -48 26 -7 26 -3 25 145 -6z m-5238 -270
c7 -19 9 -17 -22 -33 -56 -29 -47 -121 14 -147 73 -30 147 -13 169 40 18 42 8
74 -30 105 -17 12 -25 27 -21 36 8 22 22 19 57 -13 26 -23 32 -38 36 -78 5
-59 -10 -90 -56 -121 -41 -28 -126 -31 -172 -8 -82 43 -93 179 -18 221 31 17
36 17 43 -2z m5226 12 c0 -2 3 -11 6 -20 4 -10 1 -16 -9 -16 -38 0 -61 -85
-37 -131 13 -24 56 -25 68 -1 5 9 15 42 21 72 15 69 34 90 81 90 49 0 72 -26
78 -90 5 -56 -13 -95 -51 -109 -30 -11 -42 19 -15 38 41 29 41 110 0 126 -19
7 -52 -27 -52 -54 0 -33 -22 -93 -41 -112 -26 -26 -72 -24 -104 4 -52 44 -43
161 14 192 27 14 41 18 41 11z m-527 -1821 c136 -34 132 -32 118 -49 -9 -11
-20 -12 -47 -4 -31 8 -38 7 -49 -9 -7 -10 -20 -27 -28 -38 -14 -18 -13 -23 5
-53 16 -26 18 -36 9 -45 -8 -8 -14 -9 -19 -1 -112 168 -137 224 -102 224 6 0
57 -11 113 -25z m-3803 -63 c36 -55 37 -72 6 -101 -20 -19 -32 -22 -58 -17
-33 6 -33 6 -46 -46 -14 -59 -18 -66 -34 -50 -9 9 -7 26 7 71 17 56 17 62 1
86 -9 14 -19 25 -22 25 -3 0 -23 -13 -44 -30 -31 -24 -40 -27 -49 -16 -9 10 8
28 80 85 104 81 100 81 159 -7z m3637 -60 c19 -12 -1 -35 -24 -28 -13 4 -30
-1 -46 -15 -39 -30 -37 -77 4 -117 42 -41 76 -48 108 -24 22 17 26 27 24 66
-1 39 2 47 15 44 12 -2 18 -16 20 -46 3 -38 -1 -47 -31 -77 -41 -41 -72 -44
-127 -14 -45 26 -70 65 -70 114 0 64 81 126 127 97z m-3437 -169 c0 -26 -29
-12 -68 35 l-40 47 -26 -24 -26 -25 45 -46 c39 -39 44 -49 32 -59 -12 -9 -22
-3 -56 36 l-42 47 -26 -27 -27 -26 48 -51 c36 -39 45 -55 37 -63 -9 -9 -27 4
-74 51 l-62 62 85 85 84 85 58 -57 c32 -32 58 -63 58 -70z m3315 -63 c63 -63
77 -82 67 -92 -10 -10 -29 4 -94 69 -70 70 -89 103 -60 103 4 0 43 -36 87 -80z
m-3216 -18 c57 -53 64 -84 31 -120 -29 -31 -70 -28 -115 8 l-38 31 -34 -33
c-23 -22 -36 -29 -43 -22 -7 7 12 38 62 97 40 48 76 87 79 87 4 0 30 -22 58
-48z m3102 -3 c16 -16 20 -29 16 -55 l-6 -33 60 -17 c53 -15 59 -19 46 -32
-13 -13 -21 -13 -63 2 -60 20 -71 20 -100 -3 l-23 -18 34 -41 c28 -32 32 -42
21 -51 -10 -9 -29 8 -90 81 l-76 93 22 18 c105 84 124 91 159 56z m-2975 -100
c3 -6 -15 -42 -41 -79 -52 -77 -55 -102 -12 -134 39 -29 44 -25 143 110 16 22
25 26 34 18 8 -9 0 -28 -35 -78 -71 -100 -100 -114 -163 -76 -64 39 -62 78 11
187 43 64 51 71 63 52z m118 -8 c3 -5 -1 -12 -10 -15 -23 -9 -54 -7 -54 3 0
18 54 28 64 12z m2705 -237 c-11 -14 -41 -5 -54 16 -10 16 -33 12 -70 -12 -32
-22 -34 -25 -28 -65 4 -33 2 -43 -9 -43 -10 0 -21 34 -38 121 -32 158 -29 160
107 67 81 -56 101 -74 92 -84z m-2529 44 c17 -31 8 -55 -27 -73 -16 -8 -18
-14 -10 -32 7 -17 6 -29 -7 -47 -26 -40 -56 -42 -125 -6 l-62 31 47 87 c74
136 61 125 118 94 28 -15 57 -39 66 -54z m2250 37 c0 -8 -14 -22 -31 -30 l-30
-16 45 -84 c50 -92 54 -105 31 -105 -9 0 -32 35 -56 83 -23 45 -43 84 -45 86
-2 3 -20 -3 -39 -12 -22 -11 -36 -13 -41 -6 -8 13 -12 10 76 58 84 45 90 47
90 26z m-2148 -71 c4 -3 -11 -44 -33 -91 -21 -47 -39 -89 -39 -94 0 -5 23 -18
50 -30 28 -12 50 -25 50 -30 0 -20 -22 -17 -83 11 l-65 29 46 106 c43 96 58
116 74 99z m1949 -44 c10 -6 19 -17 19 -25 0 -17 -26 -20 -35 -5 -19 31 -105
-11 -91 -45 6 -15 15 -17 70 -12 76 7 106 -8 106 -53 0 -42 -9 -59 -41 -75
-43 -23 -92 -19 -118 9 -18 19 -19 24 -7 29 8 3 20 -1 26 -9 29 -33 114 -2
108 39 -3 20 -10 22 -78 25 -56 2 -78 7 -87 19 -46 61 55 142 128 103z m-1775
-28 c15 -10 -64 -222 -83 -222 -7 0 -13 6 -13 13 0 16 74 217 80 217 3 0 10
-4 16 -8z m179 -57 c44 -21 74 -85 40 -85 -9 0 -20 11 -25 25 -24 64 -106 53
-135 -17 -22 -57 -12 -95 31 -115 33 -16 35 -16 65 6 23 17 34 20 42 12 8 -8
5 -17 -11 -33 -44 -44 -140 -20 -163 40 -23 58 8 142 62 169 32 17 54 16 94
-2z m1375 0 c39 -20 60 -63 60 -120 0 -38 -5 -52 -29 -76 -41 -41 -107 -41
-152 -1 -58 52 -50 164 14 196 40 20 70 20 107 1z m-1143 -155 c26 -125 27
-140 9 -140 -15 0 -26 21 -26 50 0 23 -7 28 -58 36 -39 6 -43 4 -59 -25 -10
-17 -26 -31 -35 -31 -10 0 -18 2 -18 5 0 3 30 53 66 111 46 73 71 104 83 102
12 -2 22 -30 38 -108z m910 85 c23 -21 26 -26 13 -34 -10 -7 -21 -5 -35 9 -28
26 -63 25 -92 -2 -42 -39 -25 -130 29 -156 36 -17 76 -1 89 37 7 20 15 28 25
24 22 -8 17 -32 -15 -64 -23 -23 -38 -29 -71 -29 -52 0 -76 13 -95 50 -17 33
-20 112 -5 140 27 51 112 65 157 25z m-571 -48 c19 -22 24 -40 24 -82 0 -46
-5 -60 -29 -87 -28 -31 -33 -33 -96 -31 -37 0 -69 3 -71 6 -2 2 -1 55 2 117
l7 112 70 -4 c61 -3 72 -7 93 -31z m244 18 c0 -12 -14 -15 -64 -15 -36 0 -67
-4 -70 -9 -3 -5 -3 -22 0 -37 5 -29 6 -29 70 -26 53 3 64 1 64 -12 0 -13 -12
-16 -65 -16 l-65 0 0 -40 0 -39 73 -3 c100 -4 87 -22 -18 -26 l-85 -3 0 39 c0
21 -3 73 -6 115 l-7 76 34 4 c86 10 139 7 139 -8z"/>
<path d="M3174 5758 c-10 -29 -20 -56 -22 -60 -2 -4 17 -8 43 -8 41 0 46 2 40
18 -4 9 -14 36 -22 60 -8 23 -16 42 -17 42 -1 0 -11 -23 -22 -52z"/>
<path d="M3436 5781 c-14 -72 -27 -183 -22 -189 3 -3 30 -7 59 -10 46 -3 55
-1 76 22 19 20 26 40 29 84 5 74 -13 97 -85 110 -51 9 -52 9 -57 -17z"/>
<path d="M2488 5741 c-26 -23 -33 -37 -33 -67 0 -112 90 -170 165 -107 31 25
32 29 28 86 -4 52 -9 64 -36 88 -42 38 -82 38 -124 0z"/>
<path d="M3780 5722 c-28 -14 -38 -27 -53 -70 -15 -47 -16 -56 -2 -88 20 -49
71 -70 120 -49 74 30 96 153 35 196 -39 27 -63 30 -100 11z"/>
<path d="M2193 5664 c-37 -16 -37 -18 -22 -62 l10 -30 44 15 c58 19 71 36 57
68 -13 29 -39 31 -89 9z"/>
<path d="M2246 5554 c-22 -8 -41 -16 -43 -18 -3 -2 1 -23 8 -46 14 -45 21 -46
96 -15 27 11 33 19 33 44 0 20 -7 34 -19 41 -24 12 -26 12 -75 -6z"/>
<path d="M1943 5486 c3 -32 8 -60 10 -62 6 -6 77 28 76 35 0 3 -21 24 -46 46
l-46 40 6 -59z"/>
<path d="M2880 5219 c-366 -42 -745 -195 -1042 -420 -106 -81 -272 -242 -355
-344 -523 -647 -622 -1518 -258 -2261 281 -573 810 -989 1435 -1128 165 -36
273 -48 455 -48 243 0 445 33 675 109 130 43 356 152 475 230 516 339 860 886
940 1496 19 150 19 393 0 541 -126 963 -899 1719 -1867 1825 -112 13 -349 12
-458 0z m-210 -720 c137 -31 290 -145 342 -254 l28 -60 0 -1107 0 -1108 -620
0 -620 0 2 1113 3 1112 24 50 c30 61 119 151 186 189 28 15 82 38 120 52 65
22 85 23 280 23 116 1 230 -4 255 -10z m1321 -5 c142 -42 272 -142 325 -251
l29 -58 3 -1107 3 -1108 -626 0 -625 0 2 1113 3 1112 34 63 c56 103 170 188
311 233 77 25 459 27 541 3z"/>
<path d="M2670 4175 c-14 -25 -13 -28 9 -46 13 -10 38 -19 56 -19 36 0 45 -12
45 -64 0 -35 -15 -56 -41 -56 -9 0 -27 -9 -40 -20 l-24 -20 50 2 c74 3 95 26
95 100 0 49 -4 63 -25 83 -14 15 -36 25 -53 25 -19 0 -35 8 -44 21 -13 21 -14
21 -28 -6z"/>
<path d="M1975 4071 c1 -72 4 -86 18 -89 15 -3 17 6 17 59 l0 62 30 -7 c23 -4
32 -1 37 10 8 22 -6 33 -58 42 l-45 9 1 -86z"/>
<path d="M2110 4151 c0 -7 25 -38 55 -70 64 -67 70 -91 24 -91 -36 0 -72 -17
-64 -31 9 -14 73 -11 105 6 36 19 42 61 10 73 -19 7 -19 9 -4 30 18 26 65 30
84 7 7 -8 10 -25 6 -39 -9 -38 9 -76 37 -76 36 0 57 30 57 83 0 49 12 66 35
47 10 -8 15 -31 15 -66 0 -51 12 -76 26 -53 11 18 7 138 -5 153 -15 17 -94 38
-116 30 -11 -4 -14 -12 -9 -23 15 -32 16 -97 2 -108 -10 -9 -13 -3 -14 29 0
64 -37 83 -191 104 -39 5 -53 3 -53 -5z"/>
<path d="M2273 3703 c-4 -10 1 -22 14 -32 11 -9 27 -28 37 -43 20 -31 11 -58
-33 -95 l-26 -22 37 -1 c33 0 38 4 58 45 27 55 20 96 -21 136 -33 33 -57 37
-66 12z"/>
<path d="M1980 3668 c23 -52 25 -96 5 -125 -12 -17 -12 -23 -1 -32 10 -9 17
-6 28 11 25 38 30 65 18 109 -13 48 -11 52 24 43 36 -9 45 -30 50 -111 3 -47
9 -68 18 -68 17 0 22 35 13 103 -10 80 -44 112 -119 112 l-55 0 19 -42z"/>
<path d="M2680 3704 c0 -27 33 -54 65 -54 24 0 38 -6 45 -19 15 -28 3 -49 -36
-63 -41 -14 -43 -24 -9 -40 22 -10 30 -8 53 9 53 39 52 113 -1 147 -27 18
-117 33 -117 20z"/>
<path d="M2545 3676 c-13 -9 -29 -11 -54 -5 -72 17 -71 18 -71 -76 0 -78 2
-85 20 -85 18 0 20 7 20 60 l0 59 35 -3 c24 -2 42 -12 56 -30 26 -32 91 -67
107 -57 12 7 32 63 32 89 0 7 -11 24 -25 37 -28 28 -89 34 -120 11z m99 -37
c11 -16 12 -27 4 -44 -9 -20 -14 -22 -34 -13 -13 6 -31 22 -40 36 -13 20 -14
26 -3 33 24 15 57 10 73 -12z"/>
<path d="M2228 3578 c-3 -38 -6 -43 -28 -43 -29 0 -33 -22 -9 -38 13 -8 24 -6
44 7 23 15 26 23 23 63 -4 61 -26 69 -30 11z"/>
<path d="M2690 3360 c-1 -3 -3 -31 -5 -62 -3 -66 17 -98 64 -98 40 0 56 -22
45 -63 -7 -25 -20 -37 -57 -55 -46 -22 -75 -61 -61 -83 8 -14 31 -11 37 6 4 8
29 26 57 40 55 28 70 52 70 113 0 41 -23 82 -46 82 -39 0 -73 31 -87 77 -8 27
-16 46 -17 43z"/>
<path d="M2150 3254 c0 -9 18 -36 40 -60 22 -24 40 -49 40 -56 0 -8 5 -6 11 4
14 25 -9 98 -30 98 -9 0 -27 7 -39 16 -20 14 -22 14 -22 -2z"/>
<path d="M2253 3254 c-3 -9 6 -28 26 -48 40 -41 41 -76 2 -109 -32 -27 -31
-37 6 -37 32 0 63 53 63 108 0 36 -5 48 -32 73 -36 32 -56 37 -65 13z"/>
<path d="M2350 3267 c0 -2 9 -24 20 -48 24 -54 25 -87 4 -118 -13 -17 -14 -25
-4 -34 9 -9 16 -6 31 12 21 26 25 83 9 126 -10 25 -9 26 22 23 43 -4 58 -35
58 -116 0 -55 2 -63 18 -60 35 7 11 177 -28 198 -20 11 -130 26 -130 17z"/>
<path d="M2525 3249 c4 -13 22 -37 41 -52 22 -19 34 -38 35 -55 0 -26 1 -26
11 -5 6 12 7 38 4 57 -6 29 -14 39 -44 53 -20 9 -41 19 -46 21 -4 2 -5 -6 -1
-19z"/>
<path d="M1987 3232 c3 -13 19 -26 38 -32 37 -12 45 -26 45 -76 0 -31 -3 -34
-29 -34 -43 0 -61 -10 -61 -31 0 -18 6 -19 59 -16 32 2 63 7 69 11 22 13 24
83 4 129 -23 53 -27 55 -86 63 -42 6 -44 5 -39 -14z"/>
<path d="M1997 2773 c-3 -5 -1 -18 4 -31 7 -17 15 -22 36 -20 26 3 28 0 31
-37 4 -62 11 -85 27 -85 12 0 15 16 15 80 0 77 -1 81 -26 90 -30 12 -81 13
-87 3z"/>
<path d="M2127 2766 c-3 -7 8 -26 24 -42 38 -36 37 -66 -2 -97 -43 -34 -34
-58 18 -50 21 3 41 11 45 17 11 17 9 66 -5 113 -17 58 -67 94 -80 59z"/>
<path d="M2240 2770 c-8 -5 -12 -11 -10 -12 3 -2 17 -12 33 -21 37 -23 35 -62
-4 -115 -31 -42 -33 -72 -5 -72 8 0 35 25 61 56 72 89 73 131 2 158 -49 18
-57 19 -77 6z"/>
<path d="M2383 2754 c-8 -21 8 -35 49 -43 30 -6 33 -11 36 -44 3 -39 17 -45
35 -15 13 19 3 58 -24 91 -24 31 -85 38 -96 11z"/>
<path d="M2560 2756 c0 -3 4 -16 10 -30 8 -22 14 -25 40 -20 28 6 30 4 32 -22
0 -16 0 -40 -1 -52 -2 -24 14 -52 30 -52 14 0 11 154 -3 168 -11 11 -108 18
-108 8z"/>
<path d="M2763 2723 c-13 -2 -30 -14 -38 -26 -18 -26 -20 -111 -2 -124 22 -18
109 -35 120 -24 13 13 -16 37 -55 46 -34 8 -50 28 -46 57 2 19 11 24 46 29 46
6 68 21 58 38 -7 11 -40 12 -83 4z"/>
<path d="M2117 2314 c-4 -4 7 -22 23 -41 36 -41 37 -53 5 -83 -37 -35 -33 -60
9 -60 l34 0 7 77 c7 72 6 78 -15 95 -22 18 -51 23 -63 12z"/>
<path d="M2600 2307 c-31 -15 -48 -75 -34 -115 12 -35 109 -71 132 -49 11 12
3 18 -48 40 -56 25 -61 30 -58 54 3 24 9 29 47 35 46 8 74 25 65 39 -8 13 -75
11 -104 -4z"/>
<path d="M2230 2301 c0 -28 14 -41 46 -41 41 0 54 -21 54 -84 0 -25 5 -46 10
-46 6 0 10 33 10 80 0 77 -1 81 -26 90 -32 13 -94 13 -94 1z"/>
<path d="M2380 2293 c0 -30 33 -55 63 -48 21 6 26 2 36 -26 6 -17 11 -45 11
-60 0 -30 16 -47 31 -32 12 12 -7 134 -25 159 -8 10 -32 18 -64 22 -47 4 -52
3 -52 -15z"/>
<path d="M3694 4186 l-28 -23 58 -7 c49 -7 58 -11 67 -33 13 -36 2 -63 -26
-63 -29 0 -55 -24 -55 -51 0 -22 7 -22 87 7 51 18 56 33 47 124 l-7 70 -58 0
c-46 0 -63 -5 -85 -24z"/>
<path d="M3907 4193 c3 -10 19 -32 36 -50 35 -38 31 -58 -17 -78 -54 -23 -61
-66 -9 -58 61 9 69 13 86 43 20 34 43 38 87 15 28 -14 30 -14 30 3 0 10 -15
42 -33 72 -35 60 -67 78 -67 37 0 -37 -11 -39 -34 -4 -16 23 -31 33 -54 35
-27 3 -31 1 -25 -15z"/>
<path d="M3341 4178 c11 -21 8 -107 -7 -157 -6 -21 -5 -22 14 -12 23 12 27 24
37 94 6 43 8 47 35 47 33 0 40 -14 40 -76 0 -24 4 -44 9 -44 15 0 34 70 27
103 -11 54 -31 67 -103 67 -62 0 -63 0 -52 -22z"/>
<path d="M3530 4189 c0 -6 11 -20 25 -31 26 -20 45 -73 45 -125 0 -22 5 -33
14 -33 11 0 15 19 18 78 4 84 -3 102 -38 102 -12 0 -26 5 -29 10 -8 14 -35 13
-35 -1z"/>
<path d="M4015 3900 c-3 -5 -3 -15 0 -20 4 -6 8 -36 10 -68 4 -85 17 -109 64
-123 23 -7 43 -20 46 -29 9 -28 -12 -69 -39 -76 -34 -8 -53 -32 -64 -80 -13
-60 18 -107 32 -49 4 14 29 48 56 76 58 59 74 104 57 157 -10 30 -20 39 -56
52 -49 17 -66 49 -56 106 3 17 3 39 -1 48 -7 18 -39 22 -49 6z"/>
<path d="M3326 3666 c10 -104 15 -136 24 -136 13 0 20 28 20 76 0 50 16 64 56
46 20 -10 24 -19 24 -56 0 -41 13 -66 27 -52 10 10 19 90 13 116 -7 32 -40 47
-112 52 l-57 5 5 -51z"/>
<path d="M3827 3708 c-2 -7 11 -30 29 -51 42 -46 43 -71 3 -108 -25 -23 -28
-30 -16 -35 28 -11 49 1 68 36 11 19 19 49 19 67 0 57 -88 134 -103 91z"/>
<path d="M3550 3684 c6 -14 10 -54 10 -88 0 -67 4 -78 26 -69 10 4 14 23 14
64 0 32 4 59 8 59 20 0 32 -28 32 -72 0 -35 4 -50 15 -55 23 -8 27 0 27 56 0
44 3 51 20 51 15 0 19 6 16 27 -3 26 -7 28 -78 39 -106 17 -101 18 -90 -12z"/>
<path d="M4031 3262 c-5 -10 -7 -23 -3 -29 10 -15 48 -33 71 -33 26 0 51 -36
51 -73 0 -24 -7 -31 -39 -45 -47 -20 -71 -56 -71 -106 0 -49 16 -45 41 9 16
34 27 45 44 45 51 0 81 73 61 151 -15 56 -27 69 -67 69 -14 0 -34 7 -45 15
-25 19 -31 19 -43 -3z"/>
<path d="M3518 3240 c-15 -9 -15 -13 8 -35 31 -31 30 -53 -6 -125 -16 -33 -30
-64 -30 -71 0 -16 80 51 93 78 7 17 7 30 -2 50 -11 23 -10 29 4 39 24 18 45 6
45 -25 0 -31 20 -73 38 -79 17 -5 16 76 -3 121 -20 49 -100 74 -147 47z"/>
<path d="M3742 3233 c-8 -13 -2 -24 24 -48 42 -40 43 -70 3 -111 l-30 -31 25
-5 c37 -7 68 30 74 90 4 44 1 52 -28 85 -35 40 -54 46 -68 20z"/>
<path d="M3309 3198 c6 -17 19 -25 46 -29 51 -8 68 -33 61 -86 -6 -48 9 -67
31 -38 15 22 17 92 4 128 -11 28 -22 32 -99 42 -51 7 -52 7 -43 -17z"/>
<path d="M3923 3204 c-9 -24 6 -76 29 -101 22 -24 62 -31 73 -12 7 11 -13 69
-24 69 -4 0 -21 13 -39 30 -26 24 -34 27 -39 14z"/>
<path d="M3272 2729 c2 -18 10 -25 33 -27 46 -6 64 -28 63 -79 -1 -60 13 -71
42 -32 21 29 21 33 6 44 -9 7 -16 24 -16 37 0 40 -29 66 -83 74 -47 6 -49 6
-45 -17z"/>
<path d="M3795 2740 c-4 -6 7 -26 24 -46 29 -33 33 -46 35 -119 1 -20 6 -30
16 -30 12 0 15 16 15 84 0 65 -3 85 -15 91 -8 4 -25 12 -37 18 -28 15 -30 15
-38 2z"/>
<path d="M3630 2731 c0 -26 15 -41 39 -41 15 0 37 -7 49 -16 18 -12 22 -25 22
-70 0 -39 4 -54 14 -54 8 0 17 7 20 16 9 23 7 127 -2 142 -5 7 -35 17 -68 22
-73 12 -74 12 -74 1z"/>
<path d="M3514 2723 c-31 -6 -51 -32 -58 -73 -10 -54 10 -81 69 -97 90 -23
104 3 20 38 -84 35 -86 81 -4 92 49 6 71 23 49 37 -15 10 -38 11 -76 3z"/>
<path d="M3911 2716 c-9 -11 1 -18 50 -40 55 -24 60 -29 57 -53 -3 -24 -9 -29
-47 -35 -75 -13 -98 -48 -31 -48 61 0 98 23 106 67 11 59 -4 86 -61 105 -63
21 -60 21 -74 4z"/>
<path d="M4095 2693 c8 -15 15 -46 16 -68 1 -22 4 -51 9 -65 l7 -25 12 28 c6
16 11 42 11 58 0 19 5 29 15 29 22 0 19 47 -2 54 -10 2 -33 7 -50 11 l-33 6
15 -28z"/>
<path d="M3270 2243 c0 -27 19 -43 51 -43 36 0 47 -17 47 -73 0 -27 3 -52 7
-55 7 -7 55 46 55 61 0 4 -7 7 -15 7 -10 0 -15 10 -15 31 0 47 -16 67 -58 74
-20 4 -45 9 -54 12 -13 3 -18 -1 -18 -14z"/>
<path d="M3505 2250 c-29 -11 -42 -30 -49 -70 -10 -54 10 -81 69 -97 90 -23
104 3 20 38 -84 35 -86 81 -3 92 39 5 62 22 52 39 -7 10 -63 9 -89 -2z"/>
<path d="M3630 2251 c0 -26 15 -41 39 -41 15 0 37 -7 49 -16 18 -12 22 -25 22
-70 0 -39 4 -54 14 -54 8 0 17 7 20 16 9 23 7 127 -2 142 -5 7 -35 17 -68 22
-73 12 -74 12 -74 1z"/>
<path d="M3870 2225 c-16 -19 -6 -33 32 -43 17 -4 36 -15 41 -24 14 -22 1 -48
-23 -48 -33 0 -60 -19 -60 -42 0 -16 4 -19 23 -14 12 3 39 6 59 6 33 0 38 4
48 34 18 56 -2 112 -47 131 -44 19 -57 19 -73 0z"/>
<path d="M4037 2203 c-23 -4 -26 -7 -17 -18 7 -8 27 -17 46 -21 28 -5 34 -11
34 -30 0 -25 -4 -28 -52 -38 -38 -9 -35 -33 4 -38 57 -9 82 4 92 46 6 29 5 47
-8 72 -16 35 -26 38 -99 27z"/>
<path d="M4798 5156 c-53 -31 -54 -33 -28 -61 33 -35 45 -31 59 16 7 23 15 47
18 55 7 19 -5 16 -49 -10z"/>
<path d="M1315 5146 l-40 -34 60 -68 c32 -38 64 -76 72 -84 11 -12 18 -9 53
25 48 47 52 84 16 134 -53 72 -99 80 -161 27z"/>
<path d="M5006 5001 l-27 -28 34 -37 c39 -41 56 -44 81 -17 21 23 14 41 -31
84 l-29 27 -28 -29z"/>
<path d="M4912 4912 l-33 -27 45 -44 c41 -41 48 -44 71 -33 37 17 34 60 -8
100 -18 18 -35 32 -37 32 -3 0 -20 -13 -38 -28z"/>
<path d="M1007 4832 c-91 -95 71 -245 164 -153 48 48 32 119 -34 160 -49 30
-97 28 -130 -7z"/>
<path d="M5173 4764 c-90 -44 -102 -148 -23 -189 40 -21 76 -13 122 25 61 50
59 133 -3 165 -35 19 -56 19 -96 -1z"/>
<path d="M5553 4153 c-35 -2 -63 -5 -63 -7 0 -13 32 -76 38 -76 4 0 28 20 52
45 24 25 42 44 40 43 -3 -1 -33 -3 -67 -5z"/>
<path d="M5612 3900 c-52 -16 -96 -31 -100 -34 -10 -11 18 -86 40 -106 40 -37
140 -17 174 35 15 23 16 32 4 80 -7 30 -16 55 -19 54 -3 0 -48 -13 -99 -29z"/>
<path d="M484 3650 c-32 -13 -64 -59 -64 -91 0 -17 11 -41 28 -60 24 -27 37
-33 85 -37 52 -4 58 -2 87 26 58 58 31 139 -54 161 -51 13 -54 13 -82 1z"/>
<path d="M5673 3540 c3 -23 7 -44 10 -46 2 -3 30 10 61 28 l57 33 -43 7 c-24
4 -54 10 -67 13 -23 6 -24 4 -18 -35z"/>
<path d="M5050 1524 c0 -3 12 -23 27 -45 l26 -40 23 28 c12 15 21 29 20 30 -5
6 -96 31 -96 27z"/>
<path d="M1246 1486 l-29 -23 27 -36 c29 -38 64 -48 84 -24 12 15 2 41 -30 79
l-23 27 -29 -23z"/>
<path d="M1561 1139 c-22 -30 -22 -31 -4 -51 43 -48 93 -47 93 1 0 21 -9 36
-34 54 l-33 26 -22 -30z"/>
<path d="M4651 1119 c-23 -16 -41 -32 -41 -37 1 -4 9 -17 20 -30 22 -26 38
-22 78 21 16 17 22 32 18 45 -11 32 -32 33 -75 1z"/>
<path d="M4400 925 c0 -20 24 -95 30 -95 4 0 18 8 30 18 l23 18 -42 33 c-22
18 -41 30 -41 26z"/>
<path d="M1942 870 c-18 -30 -15 -35 27 -55 45 -20 61 -14 61 20 0 17 -9 29
-30 40 -38 19 -43 19 -58 -5z"/>
<path d="M1895 784 c-21 -32 -15 -46 26 -67 71 -34 99 32 30 71 l-39 22 -17
-26z"/>
<path d="M3785 655 c-63 -62 8 -186 88 -156 35 14 50 46 44 95 -11 77 -83 110
-132 61z"/>
<path d="M2672 561 c-24 -43 -21 -51 21 -51 26 0 29 3 23 23 -3 12 -6 32 -6
45 0 33 -14 27 -38 -17z"/>
<path d="M2948 510 c-1 -38 -2 -78 -2 -87 -1 -20 39 -29 81 -18 27 6 53 56 53
100 0 40 -41 75 -90 75 l-40 0 -2 -70z"/>
</g>
</svg>
